<svg width="638" height="600" version="1.1" xmlns="http://www.w3.org/2000/svg" desc="Created with imagetracer.js version 1.2.6" >
<MetaInfo xmlns="http://www.prognoz.ru"><Geo><GeoItem X="0" Y="0" Latitude="60.5" Longitude="-139"/><GeoItem X="638" Y="630" Latitude="47.5" Longitude="-111"/></Geo></MetaInfo>
<path fill="rgb(127,127,127)" stroke="rgb(127,127,127)" stroke-width="1" opacity="1" d="M 13.5 12 L 33.5 20 L 81.5 30 L 87.5 30 L 100.5 33 L 106.5 33 L 135.5 38 L 142.5 38 L 143.5 39 L 150.5 39 L 158.5 41 L 165.5 41 L 166.5 42 L 182.5 43 L 183.5 44 L 222 48 L 223 51.5 L 220 56 L 230.5 56 L 231.5 55 L 232 58 L 235.5 58 L 237 59.5 L 237 63.5 L 242.5 71 L 246.5 67 L 249.5 67 L 254.5 69 L 259.5 74 L 266 76 L 268 82.5 L 268 92.5 L 269.5 94 L 274 96.5 L 275 108.5 L 274 114 L 291 121 L 291 124 L 292.5 124 L 298.5 128 L 300.5 127 L 304.5 131 L 311.5 132 L 322 136.5 L 322 140.5 L 320.5 143 L 315.5 142 L 303.5 148 L 300.5 145 L 293.5 144 L 292 147 L 283.5 145 L 277 147.5 L 277 149 L 274.5 149 L 272 151.5 L 272 156.5 L 274 160.5 L 270.5 163 L 267.5 160 L 261 160 L 261 166.5 L 257 173.5 L 258 177.5 L 252 181.5 L 251 187 L 254 188.5 L 256 199.5 L 259.5 204 L 263.5 202 L 266.5 209 L 276 206 L 277.5 203 L 279.5 203 L 289 209.5 L 287 221.5 L 288 224 L 293 226.5 L 293 229.5 L 294.5 231 L 304.5 229 L 306.5 227 L 311 227 L 311 225 L 317 225 L 317 230 L 318.5 230 L 322 228 L 328.5 236 L 332 237.5 L 332 245.5 L 334.5 252 L 337 253.5 L 342 259.5 L 343 264.5 L 345.5 267 L 355 271 L 356 278.5 L 352.5 283 L 342.5 281 L 338 285.5 L 342 289.5 L 346 295.5 L 346 298.5 L 342 310.5 L 352 316.5 L 353 323.5 L 352 326.5 L 356 330.5 L 356 335.5 L 355 336.5 L 355 341.5 L 359 347.5 L 358 351 L 341.5 352 L 338.5 354 L 335.5 351 L 327.5 349 L 326 351.5 L 327 356 L 322.5 356 L 320.5 354 L 315.5 353 L 314 354.5 L 314 372 L 272.5 373 L 269 370.5 L 269 369 L 264 369 L 264 363.5 L 266 359 L 263.5 358 L 255.5 358 L 249 364.5 L 249 366.5 L 250 369 L 253 370.5 L 253 377.5 L 248.5 386 L 247 383 L 242.5 382 L 241 385 L 234.5 385 L 234 386.5 L 232 387.5 L 233 382.5 L 230.5 380 L 222 377 L 220 388 L 217.5 388 L 209 382 L 206 374.5 L 206 367.5 L 210.5 360 L 218 365.5 L 221.5 373 L 223 372.5 L 223 365.5 L 222 363 L 216 358.5 L 214 352.5 L 214 345 L 216 345 L 216 340.5 L 222 332.5 L 220.5 331 L 216.5 331 L 204 341.5 L 204 349.5 L 202.5 350 L 198 347 L 199 352.5 L 196.5 358 L 193 357 L 193 354.5 L 189 348.5 L 189 344.5 L 185 340.5 L 182.5 335 L 181 335 L 181 331.5 L 180 330.5 L 181.5 329 L 193.5 343 L 195 343 L 195 339.5 L 191 332.5 L 185 326.5 L 185 319.5 L 186 315.5 L 181 311.5 L 177.5 304 L 176 303.5 L 179 294.5 L 179 290 L 175 289 L 174 285.5 L 183 279 L 192 265.5 L 193 261.5 L 190 249.5 L 192 244.5 L 191 243.5 L 191 238.5 L 195 232.5 L 191.5 224 L 187.5 224 L 186 222.5 L 185 218.5 L 182.5 216 L 177.5 212 L 170.5 210 L 164 203.5 L 159.5 198 L 154 198 L 154 194.5 L 153 193.5 L 153 188.5 L 151.5 187 L 148 184.5 L 150 177.5 L 143 174 L 145 168.5 L 145 164.5 L 132 132.5 L 131 124.5 L 125 111.5 L 127 108.5 L 117 92.5 L 108 83.5 L 108 77.5 L 100.5 66 L 97 64.5 L 95 57.5 L 96 52.5 L 89.5 39 L 70 44 L 70 47.5 L 68.5 49 L 64 50 L 63 56.5 L 58.5 63 L 53.5 63 L 45.5 67 L 37.5 69 L 38 67.5 L 37 55.5 L 13.5 12 Z " /><path fill="rgb(127,127,127)" stroke="rgb(127,127,127)" stroke-width="1" opacity="1" d="M 225 49 L 231.5 50 L 242.5 50 L 243.5 51 L 266.5 51 L 267.5 52 L 390.5 52 L 391.5 51 L 429 51 L 430 79.5 L 431 80.5 L 431 96.5 L 432 97.5 L 432 113.5 L 433 114.5 L 433 130.5 L 434 131.5 L 434 147.5 L 435 148.5 L 435 164.5 L 436 165.5 L 436 182.5 L 437 183.5 L 437 199.5 L 438 200.5 L 438 216.5 L 439 217.5 L 439 233.5 L 440 234.5 L 440 250.5 L 441 251.5 L 441 267.5 L 442 268.5 L 442 284.5 L 443 285.5 L 444 319.5 L 445 320.5 L 445 327 L 440 326 L 442 321 L 433 319 L 433 315.5 L 431.5 314 L 430 314 L 430 312.5 L 428 306 L 424.5 304 L 421.5 305 L 420 302 L 408 301 L 405 290.5 L 400.5 286 L 397 286 L 397 284.5 L 391.5 277 L 388 274.5 L 382.5 268 L 377.5 264 L 373.5 264 L 368 260.5 L 367 253.5 L 358.5 243 L 352 239.5 L 349.5 236 L 347 236 L 347 237.5 L 347 239.5 L 346 246.5 L 347 249.5 L 344 253.5 L 344 256 L 339 253.5 L 336.5 250 L 335 249.5 L 335 244.5 L 334 242.5 L 335 239.5 L 331.5 233 L 329.5 234 L 321.5 225 L 311.5 222 L 309 223 L 309 225 L 305.5 225 L 303.5 226 L 301.5 225 L 298.5 228 L 295 228 L 295 224 L 293.5 224 L 289 220.5 L 292 211.5 L 291 207 L 277.5 200 L 273.5 204 L 267 206 L 264.5 199 L 259 201 L 257 190.5 L 254 183.5 L 260 179.5 L 260 171.5 L 263 167.5 L 263 163 L 267 163 L 267.5 165 L 272.5 165 L 277 163 L 274 152.5 L 275.5 151 L 280 151 L 281.5 148 L 287.5 148 L 292.5 150 L 294 147 L 299.5 148 L 301.5 150 L 305.5 150 L 317.5 144 L 321.5 146 L 324 141.5 L 324 134.5 L 310.5 129 L 305.5 129 L 303 126.5 L 303 125 L 297.5 125 L 297 123.5 L 293 122 L 291.5 119 L 276 111.5 L 277 110.5 L 277 102.5 L 276 101.5 L 276 94.5 L 274.5 93 L 271 91.5 L 270 81.5 L 266.5 74 L 260.5 72 L 255.5 67 L 246.5 64 L 242 67.5 L 239 60.5 L 240 57.5 L 238.5 56 L 235 56 L 233.5 53 L 225.5 53 L 224.5 54 L 225 52.5 L 225 49 Z " /><path fill="rgb(127,127,127)" stroke="rgb(127,127,127)" stroke-width="1" opacity="1" d="M 350.5 241 L 352.5 244 L 358 245 L 360 249.5 L 365 254.5 L 366 263 L 374.5 267 L 377.5 267 L 385 273.5 L 391.5 281 L 394 282.5 L 395 289 L 400.5 289 L 403 291.5 L 407.5 303 L 417.5 304 L 420.5 307 L 427 308 L 427 312.5 L 429.5 316 L 431 316 L 431 317.5 L 430 321 L 437 322 L 438 328 L 443 329 L 443 333.5 L 446.5 337 L 451 338 L 454 342.5 L 450 344 L 452 350.5 L 457.5 356 L 461.5 355 L 466 358.5 L 467.5 362 L 474.5 365 L 476 361 L 480 363.5 L 482.5 369 L 485 370.5 L 485 372.5 L 487.5 375 L 491 376 L 490 379.5 L 494 382 L 494 386.5 L 497 391.5 L 497 396 L 491 398.5 L 487.5 406 L 483 403.5 L 484 401.5 L 481 398.5 L 480 390.5 L 476.5 387 L 471.5 385 L 466.5 388 L 461.5 384 L 457.5 384 L 455.5 386 L 452.5 386 L 445.5 377 L 440.5 377 L 439 378.5 L 438 381.5 L 441 386.5 L 441 390.5 L 435 394.5 L 436 406.5 L 442 412.5 L 443 420.5 L 441 426.5 L 442 430 L 437 431 L 436 433.5 L 436 443 L 421.5 443 L 415.5 447 L 412 444.5 L 412 441.5 L 410.5 440 L 401.5 440 L 399.5 442 L 387.5 442 L 379 446.5 L 379 452.5 L 378 453.5 L 381 456.5 L 381 458.5 L 377.5 461 L 370.5 457 L 367.5 457 L 364 458 L 363 461.5 L 357.5 468 L 348.5 471 L 345.5 470 L 338 462.5 L 334.5 458 L 323 457 L 321.5 453 L 314.5 454 L 312 453 L 308 445.5 L 310 443.5 L 310 433.5 L 302.5 425 L 301 425 L 301 423.5 L 300 422.5 L 300 416.5 L 305 411.5 L 305 407.5 L 308 404.5 L 308 402.5 L 300.5 394 L 293.5 394 L 292 392.5 L 291.5 390 L 280.5 393 L 276 389.5 L 278.5 386 L 282 384.5 L 278.5 380 L 276 378.5 L 276.5 375 L 315.5 375 L 316 371.5 L 317 370.5 L 317 356 L 321.5 359 L 329 359 L 330 353 L 335.5 354 L 339.5 357 L 343.5 354 L 359.5 354 L 361 352.5 L 361 345.5 L 358 341.5 L 358 334.5 L 359 329.5 L 355 326.5 L 355 318.5 L 352.5 313 L 347.5 312 L 345 309.5 L 349 296.5 L 342 285.5 L 345.5 284 L 349.5 286 L 355 286 L 359 279.5 L 359 276.5 L 357 269 L 351.5 268 L 345 262.5 L 344 259.5 L 346 259 L 346 255.5 L 350 250.5 L 350 248.5 L 349 243.5 L 350.5 241 Z " /><path fill="rgb(127,127,127)" stroke="rgb(127,127,127)" stroke-width="1" opacity="1" d="M 108.5 304 L 113.5 304 L 116.5 307 L 124 309 L 124 311 L 129.5 311 L 135.5 314 L 138.5 314 L 145.5 311 L 146 315.5 L 143.5 322 L 138 325 L 138 332.5 L 136 337.5 L 136 347.5 L 132.5 352 L 119.5 355 L 115 353 L 111 344 L 114 342.5 L 112.5 339 L 109 336.5 L 107 331.5 L 107 326.5 L 105 323.5 L 104 314.5 L 107 310.5 L 107 305.5 L 108.5 304 Z " /><path fill="rgb(127,127,127)" stroke="rgb(127,127,127)" stroke-width="1" opacity="1" d="M 176.5 318 L 179 318 L 179 324.5 L 175 329.5 L 175.5 331 L 174 331 L 174 326.5 L 171.5 323 L 168.5 325 L 168 323.5 L 176.5 318 Z " /><path fill="rgb(127,127,127)" stroke="rgb(127,127,127)" stroke-width="1" opacity="1" d="M 171 339 L 177.5 341 L 185 348.5 L 189 356.5 L 189 360 L 185 360 L 185 358.5 L 181.5 353 L 175 347.5 L 171 339 Z " /><path fill="rgb(127,127,127)" stroke="rgb(127,127,127)" stroke-width="1" opacity="1" d="M 136.5 351 L 138 351 L 138 352.5 L 143 360.5 L 139.5 364 L 137.5 364 L 134 363 L 135 372 L 137 372 L 137 377.5 L 145 388.5 L 146 395 L 150.5 395 L 152 396.5 L 155 403.5 L 147.5 408 L 135.5 389 L 130 384.5 L 128 378.5 L 120 366.5 L 120 364 L 122 363.5 L 116 360.5 L 115 356 L 127.5 357 L 136.5 351 Z " /><path fill="rgb(127,127,127)" stroke="rgb(127,127,127)" stroke-width="1" opacity="1" d="M 260.5 360 L 263 360 L 263 361.5 L 261 368.5 L 263.5 371 L 266.5 371 L 270.5 375 L 273 375 L 274 381 L 279 383.5 L 274 386.5 L 273 389.5 L 274 392 L 282.5 396 L 289.5 393 L 291 396 L 298.5 396 L 301 397 L 301 400 L 302.5 400 L 305 403.5 L 303 405.5 L 303 409.5 L 298 414.5 L 297 420.5 L 298 424.5 L 301.5 428 L 306 431.5 L 308 434.5 L 308 440.5 L 305 448 L 309 450.5 L 309 452.5 L 311.5 455 L 316.5 457 L 320 455 L 321 459 L 333.5 460 L 335 461.5 L 345 472.5 L 343 477.5 L 349 482.5 L 347.5 486 L 342.5 486 L 340 487 L 344 493.5 L 341.5 494 L 337 493 L 336 498.5 L 338 501.5 L 338 504.5 L 337 507.5 L 340 514.5 L 340 521 L 337.5 522 L 328 522 L 333.5 529 L 337 531.5 L 337 534 L 335.5 534 L 329 529.5 L 322 517.5 L 320 510.5 L 321 507 L 325 506 L 325 501.5 L 322.5 498 L 319.5 496 L 314.5 497 L 310.5 492 L 301.5 490 L 297 491 L 295.5 488 L 283.5 488 L 280 487 L 277.5 481 L 271.5 481 L 271 479.5 L 278 473.5 L 271.5 470 L 266 470 L 264.5 467 L 262 468.5 L 258.5 473 L 256.5 473 L 245 465.5 L 245 461.5 L 239 455.5 L 239 453 L 245.5 453 L 247 451.5 L 247 448 L 239.5 448 L 240.5 446 L 245 443.5 L 248 436.5 L 245.5 435 L 240.5 439 L 238 435.5 L 236 425.5 L 237 424.5 L 237 417.5 L 240 412.5 L 240 407.5 L 233.5 400 L 231.5 400 L 229 402.5 L 229 404 L 226 404 L 226 401 L 227.5 401 L 233 398.5 L 228.5 392 L 225.5 394 L 224 391.5 L 226.5 389 L 227.5 390 L 232.5 391 L 237.5 387 L 241.5 388 L 243 385 L 245 385 L 245 386.5 L 246 389 L 252 386.5 L 256 377.5 L 256 374.5 L 255 373.5 L 255 367 L 252 367 L 252 364.5 L 255.5 361 L 260.5 360 Z " /><path fill="rgb(127,127,127)" stroke="rgb(127,127,127)" stroke-width="1" opacity="1" d="M 441 379 L 444.5 379 L 447 381.5 L 449 387 L 454.5 389 L 460.5 386 L 464.5 390 L 468.5 390 L 472.5 387 L 477 390.5 L 479 393.5 L 479 399.5 L 481 401.5 L 480 404.5 L 484.5 408 L 488.5 408 L 491 405.5 L 493 399 L 495.5 399 L 503 394.5 L 503.5 393 L 511 397.5 L 508 403.5 L 509.5 405 L 512.5 405 L 515.5 408 L 522 407 L 526.5 413 L 528 413 L 528 414.5 L 533 419.5 L 534 425 L 537 425 L 537 423.5 L 539 421.5 L 539 419 L 542 419 L 542 421.5 L 544 427 L 549 430.5 L 550 434 L 553 435.5 L 554 439.5 L 552 442.5 L 552 447.5 L 554 449.5 L 552.5 451 L 550 452.5 L 554 457.5 L 546.5 459 L 542 462.5 L 541 467 L 535 464.5 L 535 460.5 L 531.5 457 L 529 455.5 L 530 453 L 527.5 453 L 523 457.5 L 523 467.5 L 527.5 474 L 529 474 L 529 475.5 L 530 477.5 L 525.5 481 L 522.5 481 L 517.5 478 L 513.5 478 L 511.5 480 L 509 480 L 509 476.5 L 507.5 475 L 504.5 473 L 501 473 L 503 482.5 L 501 485.5 L 501 494.5 L 502 499.5 L 501 502 L 497.5 502 L 496 503.5 L 499 515 L 479.5 517 L 472 523.5 L 474 534.5 L 478 543.5 L 476 553 L 463.5 555 L 438.5 555 L 434 556 L 434 551.5 L 432 547.5 L 434 542.5 L 431.5 540 L 425 539 L 426 532.5 L 429 529.5 L 429 524 L 422 523 L 425 517.5 L 419 510.5 L 418 506 L 404.5 505 L 399.5 507 L 390 502.5 L 394.5 493 L 400.5 493 L 401 491.5 L 405 486.5 L 405 477.5 L 407 472.5 L 407 467.5 L 404.5 464 L 403.5 465 L 396.5 465 L 389.5 462 L 383 457 L 383 454.5 L 381 452.5 L 381 447 L 388.5 444 L 401.5 444 L 403.5 442 L 408.5 442 L 410 443.5 L 410 447 L 417.5 449 L 421.5 446 L 436.5 446 L 438 444.5 L 438 434.5 L 440.5 432 L 444 430.5 L 445 413.5 L 438 404.5 L 437 395 L 442 394 L 444 390.5 L 444 387.5 L 441 382.5 L 441 379 Z " /><path fill="rgb(127,127,127)" stroke="rgb(127,127,127)" stroke-width="1" opacity="1" d="M 224.5 380 L 230 383.5 L 230 388 L 228.5 388 L 224.5 387 L 223 387.5 L 224.5 380 Z " /><path fill="rgb(127,127,127)" stroke="rgb(127,127,127)" stroke-width="1" opacity="1" d="M 230.5 416 L 233 416.5 L 232 417.5 L 232 423.5 L 230.5 425 L 228 423.5 L 227 420.5 L 228 417 L 230.5 416 Z " /><path fill="rgb(127,127,127)" stroke="rgb(127,127,127)" stroke-width="1" opacity="1" d="M 230 432 L 233 433.5 L 235 437.5 L 235 441.5 L 233.5 443 L 232.5 442 L 228 439.5 L 228 435.5 L 230 432 Z " /><path fill="rgb(127,127,127)" stroke="rgb(127,127,127)" stroke-width="1" opacity="1" d="M 555 442 L 559 443.5 L 565.5 451 L 569 451 L 569 453 L 570.5 453 L 574 458.5 L 573 460.5 L 576.5 464 L 584 466 L 584 470.5 L 585.5 472 L 593 471 L 594.5 475 L 600 478 L 600 486.5 L 605 493.5 L 605 495.5 L 604 498.5 L 607 505.5 L 607 510.5 L 605 514.5 L 607.5 517 L 610 517 L 610 522.5 L 617 532 L 622.5 532 L 626 534.5 L 627 538 L 596.5 544 L 574.5 545 L 573.5 546 L 564.5 546 L 563.5 547 L 538.5 549 L 537.5 550 L 527.5 550 L 526.5 551 L 508.5 551 L 507.5 552 L 479 553 L 480 540.5 L 476 533.5 L 475 523 L 482.5 519 L 503 517 L 499 508.5 L 499 504.5 L 500.5 505 L 503 503.5 L 504 501.5 L 504 493.5 L 503 492.5 L 503 486.5 L 505 483.5 L 505 480.5 L 504 476.5 L 507 478.5 L 507 481.5 L 508.5 483 L 512.5 483 L 514.5 481 L 517.5 481 L 519.5 483 L 525.5 484 L 533 478.5 L 532 474.5 L 528.5 471 L 526 469.5 L 525 459.5 L 526.5 457 L 532 461.5 L 534.5 468 L 539.5 470 L 543 469 L 544 464.5 L 546.5 462 L 555 461 L 556 456.5 L 553.5 453 L 556 451.5 L 555 442 Z " /><path fill="rgb(127,127,127)" stroke="rgb(127,127,127)" stroke-width="1" opacity="1" d="M 366.5 460 L 370.5 460 L 378.5 464 L 381 463 L 382.5 460 L 393.5 467 L 400.5 468 L 404 467 L 405 469.5 L 403 474.5 L 403 485.5 L 399 491 L 392.5 491 L 392 492.5 L 387 502.5 L 389.5 506 L 400.5 510 L 404.5 508 L 414.5 508 L 422 517.5 L 419 521.5 L 421.5 526 L 425.5 526 L 427 527.5 L 424 530.5 L 422 541 L 431 543 L 429 548.5 L 432 553.5 L 431 556 L 390.5 556 L 389.5 557 L 374 557 L 371.5 552 L 365.5 555 L 362 548.5 L 364 546.5 L 364 542.5 L 361 539.5 L 362 538.5 L 364 531.5 L 361.5 529 L 359.5 529 L 355 539 L 345.5 536 L 342 532.5 L 340 524.5 L 342 521.5 L 342 514.5 L 339 505.5 L 340 500.5 L 338 496 L 345 497 L 346 492.5 L 343 488 L 351 488 L 351 482.5 L 347.5 478 L 345 476.5 L 346.5 474 L 355.5 472 L 362 467.5 L 366.5 460 Z " /><path fill="rgb(127,127,127)" stroke="rgb(127,127,127)" stroke-width="1" opacity="1" d="M 227.5 471 L 242 474 L 245.5 479 L 268.5 489 L 288.5 495 L 295.5 495 L 297 496.5 L 300 505 L 302.5 505 L 305 502.5 L 303 498.5 L 306 498 L 305 510.5 L 307 514.5 L 317 524.5 L 314 528.5 L 317 535.5 L 320.5 539 L 342 547 L 349.5 560 L 358 567.5 L 354 568 L 354 573 L 355.5 573 L 359 575 L 362 581.5 L 362 585.5 L 360.5 585 L 357 585 L 357 586.5 L 354.5 590 L 332.5 580 L 323.5 578 L 309 567.5 L 309 566 L 312.5 566 L 316 563.5 L 311.5 558 L 309 558 L 309 559.5 L 307.5 561 L 306.5 560 L 300.5 559 L 297.5 561 L 296 558 L 291.5 558 L 287 553.5 L 287 552 L 292 552 L 292 549.5 L 288.5 544 L 285 544 L 285 539.5 L 281.5 538 L 277.5 541 L 273.5 537 L 271.5 537 L 269 538 L 269 533.5 L 271.5 531 L 274 529.5 L 274 527.5 L 269.5 523 L 265 522 L 267 527.5 L 265.5 529 L 264.5 528 L 259 524.5 L 262 519.5 L 261 517 L 258.5 516 L 255.5 518 L 252 515.5 L 256 512.5 L 256 509.5 L 253.5 506 L 249.5 506 L 248 507.5 L 247.5 511 L 241.5 504 L 237.5 503 L 236 506 L 233 504.5 L 234 497.5 L 232 495.5 L 233 494.5 L 232 488.5 L 230.5 487 L 226.5 487 L 225 485.5 L 222 478.5 L 222 473 L 227.5 471 Z " /><path fill="rgb(127,127,127)" stroke="rgb(127,127,127)" stroke-width="1" opacity="1" d="M 291.5 490 L 294 490 L 294 493 L 287 491.5 L 291.5 490 Z " /><path fill="rgb(127,127,127)" stroke="rgb(127,127,127)" stroke-width="1" opacity="1" d="M 315.5 501 L 318 501 L 318 502.5 L 315.5 506 L 314 506 L 314 510 L 312.5 510 L 311 508.5 L 311 505.5 L 315.5 501 Z " /><path fill="rgb(127,127,254)" stroke="rgb(127,127,254)" stroke-width="1" opacity="1" d="M 274.5 160 L 273.5 162 L 274.5 160 Z " /><path fill="rgb(127,127,254)" stroke="rgb(127,127,254)" stroke-width="1" opacity="1" d="M 162.5 201 L 163.5 203 L 162.5 201 Z " /><path fill="rgb(127,127,254)" stroke="rgb(127,127,254)" stroke-width="1" opacity="1" d="M 345.5 263 L 346.5 265 L 345.5 263 Z " /><path fill="rgb(127,127,254)" stroke="rgb(127,127,254)" stroke-width="1" opacity="1" d="M 385.5 274 L 386.5 276 L 385.5 274 Z " /><path fill="rgb(127,127,254)" stroke="rgb(127,127,254)" stroke-width="1" opacity="1" d="M 390.5 279 L 391.5 281 L 390.5 279 Z " /><path fill="rgb(127,127,254)" stroke="rgb(127,127,254)" stroke-width="1" opacity="1" d="M 124.5 310 L 127 310.5 L 124.5 311 L 124.5 310 Z " /><path fill="rgb(127,127,254)" stroke="rgb(127,127,254)" stroke-width="1" opacity="1" d="M 342.5 310 L 344.5 313 L 342.5 310 Z " /><path fill="rgb(127,127,254)" stroke="rgb(127,127,254)" stroke-width="1" opacity="1" d="M 441.5 322 L 440.5 324 L 441.5 322 Z " /><path fill="rgb(127,127,254)" stroke="rgb(127,127,254)" stroke-width="1" opacity="1" d="M 357.5 328 L 358.5 330 L 357.5 328 Z " /><path fill="rgb(127,127,254)" stroke="rgb(127,127,254)" stroke-width="1" opacity="1" d="M 186.5 334 L 187.5 336 L 186.5 334 Z " /><path fill="rgb(127,127,254)" stroke="rgb(127,127,254)" stroke-width="1" opacity="1" d="M 182.5 335 L 183.5 337 L 182.5 335 Z " /><path fill="rgb(127,127,254)" stroke="rgb(127,127,254)" stroke-width="1" opacity="1" d="M 451.5 339 L 452.5 341 L 451.5 339 Z " /><path fill="rgb(127,127,254)" stroke="rgb(127,127,254)" stroke-width="1" opacity="1" d="M 192.5 341 L 193.5 343 L 192.5 341 Z " /><path fill="rgb(127,127,254)" stroke="rgb(127,127,254)" stroke-width="1" opacity="1" d="M 181.5 353 L 182.5 355 L 181.5 353 Z " /><path fill="rgb(127,127,254)" stroke="rgb(127,127,254)" stroke-width="1" opacity="1" d="M 320.5 354 L 321.5 356 L 320.5 354 Z " /><path fill="rgb(127,127,254)" stroke="rgb(127,127,254)" stroke-width="1" opacity="1" d="M 302.5 413 L 300.5 416 L 302.5 413 Z " /><path fill="rgb(127,127,254)" stroke="rgb(127,127,254)" stroke-width="1" opacity="1" d="M 243.5 436 L 241.5 439 L 243.5 436 Z " /><path fill="rgb(127,127,254)" stroke="rgb(127,127,254)" stroke-width="1" opacity="1" d="M 555.5 451 L 554.5 453 L 555.5 451 Z " /><path fill="rgb(127,127,254)" stroke="rgb(127,127,254)" stroke-width="1" opacity="1" d="M 361.5 467 L 360.5 469 L 361.5 467 Z " /><path fill="rgb(127,127,254)" stroke="rgb(127,127,254)" stroke-width="1" opacity="1" d="M 593.5 473 L 594.5 475 L 593.5 473 Z " /><path fill="rgb(127,127,254)" stroke="rgb(127,127,254)" stroke-width="1" opacity="1" d="M 532.5 478 L 529.5 482 L 532.5 478 Z " /><path fill="rgb(127,127,254)" stroke="rgb(127,127,254)" stroke-width="1" opacity="1" d="M 277.5 481 L 278.5 483 L 277.5 481 Z " /><path fill="rgb(127,127,254)" stroke="rgb(127,127,254)" stroke-width="1" opacity="1" d="M 341.5 490 L 342.5 492 L 341.5 490 Z " /><path fill="rgb(127,127,254)" stroke="rgb(127,127,254)" stroke-width="1" opacity="1" d="M 304.5 502 L 305.5 504 L 304.5 502 Z " /><path fill="rgb(127,127,254)" stroke="rgb(127,127,254)" stroke-width="1" opacity="1" d="M 307.5 514 L 308.5 516 L 307.5 514 Z " /><path fill="rgb(127,127,254)" stroke="rgb(127,127,254)" stroke-width="1" opacity="1" d="M 423.5 519 L 422.5 521 L 423.5 519 Z " /><path fill="rgb(127,127,254)" stroke="rgb(127,127,254)" stroke-width="1" opacity="1" d="M 425.5 529 L 424.5 531 L 425.5 529 Z " /><path fill="rgb(127,127,254)" stroke="rgb(127,127,254)" stroke-width="1" opacity="1" d="M 432.5 550 L 433.5 552 L 432.5 550 Z " /><path fill="rgb(127,254,254)" stroke="rgb(127,254,254)" stroke-width="1" opacity="1" d="M 358.5 243 L 359.5 245 L 358.5 243 Z " /><path fill="rgb(127,254,254)" stroke="rgb(127,254,254)" stroke-width="1" opacity="1" d="M 360.5 352 L 359.5 354 L 360.5 352 Z " /><path fill="rgb(127,254,254)" stroke="rgb(127,254,254)" stroke-width="1" opacity="1" d="M 464.5 356 L 465.5 358 L 464.5 356 Z " /><path fill="rgb(254,254,254)" stroke="rgb(254,254,254)" stroke-width="1" opacity="1" d="M 0 0 L 638 0 L 638 600 L 0 600 L 0 0 Z M 14 12 L 37 56 L 37 64 L 38 65 L 37 68 L 38 70 L 55 63 L 59 63 L 63 57 L 64 50 L 68 49 L 70 49 L 70 44 L 90 39 L 96 53 L 95 57 L 97 65 L 101 66 L 102 71 L 108 78 L 108 84 L 117 93 L 127 109 L 125 112 L 131 126 L 131 131 L 145 165 L 145 169 L 143 174 L 150 178 L 148 185 L 152 187 L 153 189 L 154 198 L 161 199 L 169 210 L 175 211 L 183 216 L 186 223 L 188 224 L 192 224 L 195 233 L 191 239 L 191 244 L 192 245 L 190 249 L 191 258 L 193 263 L 185 276 L 178 282 L 174 286 L 174 288 L 177 290 L 179 290 L 179 295 L 176 304 L 179 305 L 181 312 L 186 316 L 185 320 L 185 327 L 191 333 L 195 341 L 195 343 L 188 336 L 180 329 L 181 335 L 189 345 L 189 350 L 192 353 L 193 357 L 197 358 L 199 353 L 198 348 L 201 348 L 203 350 L 204 350 L 204 342 L 217 331 L 221 331 L 222 333 L 218 337 L 216 344 L 214 346 L 215 358 L 223 366 L 223 373 L 221 373 L 219 367 L 211 359 L 205 370 L 208 381 L 218 388 L 220 388 L 222 377 L 231 380 L 233 383 L 232 385 L 233 388 L 236 385 L 241 385 L 243 382 L 247 385 L 247 386 L 249 386 L 253 379 L 253 370 L 252 369 L 249 366 L 256 358 L 264 358 L 266 359 L 263 368 L 265 369 L 269 369 L 272 373 L 314 372 L 314 355 L 316 353 L 320 354 L 323 357 L 324 356 L 327 356 L 327 352 L 326 351 L 328 349 L 335 351 L 339 354 L 342 352 L 358 351 L 359 349 L 355 341 L 356 336 L 356 331 L 352 327 L 353 325 L 352 317 L 347 314 L 342 310 L 346 299 L 345 294 L 339 287 L 339 285 L 344 281 L 349 283 L 354 283 L 356 280 L 355 272 L 346 267 L 343 265 L 341 259 L 341 257 L 340 257 L 338 255 L 335 252 L 333 251 L 333 246 L 332 245 L 333 241 L 332 238 L 329 236 L 322 228 L 319 230 L 317 230 L 317 225 L 312 225 L 305 229 L 302 228 L 298 231 L 295 230 L 293 230 L 293 227 L 287 222 L 288 215 L 290 213 L 289 208 L 280 203 L 267 209 L 264 202 L 260 204 L 256 200 L 254 189 L 251 186 L 252 182 L 258 178 L 257 173 L 261 167 L 261 162 L 263 160 L 268 160 L 269 163 L 275 161 L 272 157 L 272 152 L 275 149 L 278 149 L 277 148 L 284 145 L 292 147 L 293 144 L 300 145 L 304 148 L 316 142 L 321 143 L 322 141 L 322 137 L 313 132 L 305 131 L 302 129 L 302 127 L 299 127 L 298 128 L 294 124 L 291 124 L 291 121 L 274 114 L 275 110 L 274 95 L 269 94 L 268 92 L 268 83 L 266 76 L 260 74 L 255 69 L 249 67 L 248 66 L 243 71 L 237 63 L 237 58 L 234 58 L 232 55 L 230 56 L 222 56 L 220 55 L 223 52 L 222 48 L 193 45 L 192 44 L 176 43 L 175 42 L 168 42 L 167 41 L 160 41 L 159 40 L 152 40 L 151 39 L 137 38 L 136 37 L 130 37 L 129 36 L 123 36 L 122 35 L 77 29 L 38 21 L 14 12 Z M 226 48 L 225 53 L 225 54 L 234 53 L 235 55 L 234 56 L 240 57 L 239 61 L 242 68 L 247 64 L 256 67 L 261 72 L 267 74 L 270 83 L 271 92 L 276 94 L 276 102 L 277 103 L 276 112 L 292 119 L 293 122 L 298 125 L 303 125 L 303 127 L 306 129 L 311 129 L 324 134 L 324 142 L 322 146 L 318 144 L 306 150 L 302 150 L 298 147 L 294 147 L 294 149 L 292 150 L 288 148 L 280 148 L 280 151 L 276 151 L 274 153 L 277 163 L 273 165 L 267 165 L 266 162 L 263 163 L 263 168 L 260 172 L 260 180 L 254 182 L 259 201 L 265 199 L 267 206 L 274 204 L 278 200 L 288 205 L 291 209 L 292 213 L 289 219 L 289 222 L 294 224 L 295 224 L 295 228 L 299 228 L 302 226 L 304 226 L 309 225 L 313 222 L 322 225 L 324 229 L 330 234 L 333 234 L 335 241 L 334 243 L 335 246 L 335 250 L 337 250 L 339 254 L 342 256 L 344 256 L 344 254 L 347 251 L 346 247 L 347 240 L 347 238 L 347 236 L 350 236 L 351 239 L 357 242 L 367 254 L 368 261 L 374 264 L 379 265 L 384 269 L 387 274 L 394 279 L 397 285 L 397 286 L 401 286 L 404 290 L 408 301 L 413 302 L 420 302 L 420 304 L 422 305 L 426 305 L 429 309 L 430 313 L 430 314 L 432 314 L 433 317 L 432 319 L 442 322 L 440 324 L 440 326 L 445 327 L 445 320 L 444 319 L 444 303 L 443 302 L 443 286 L 442 285 L 442 269 L 441 268 L 440 234 L 439 233 L 439 217 L 438 216 L 438 200 L 437 199 L 437 183 L 436 182 L 436 166 L 435 165 L 435 149 L 434 148 L 434 132 L 433 131 L 433 114 L 432 113 L 432 97 L 431 96 L 431 80 L 430 79 L 429 51 L 392 51 L 391 52 L 269 52 L 268 51 L 233 50 L 226 48 Z M 351 241 L 349 243 L 349 249 L 350 250 L 344 260 L 345 264 L 352 268 L 357 269 L 359 277 L 358 281 L 354 286 L 347 284 L 344 284 L 342 286 L 349 297 L 345 310 L 348 312 L 353 313 L 355 319 L 355 327 L 359 331 L 358 335 L 358 342 L 361 346 L 361 352 L 359 354 L 344 354 L 339 357 L 334 353 L 330 353 L 328 359 L 322 359 L 317 356 L 317 371 L 316 372 L 316 375 L 275 375 L 276 379 L 279 380 L 281 383 L 281 385 L 278 387 L 276 387 L 276 390 L 282 394 L 287 391 L 292 391 L 292 393 L 294 394 L 301 394 L 308 403 L 308 405 L 305 408 L 304 413 L 300 416 L 301 425 L 304 426 L 310 434 L 310 443 L 308 446 L 311 452 L 315 454 L 322 453 L 323 457 L 335 458 L 337 462 L 346 470 L 349 471 L 355 470 L 360 467 L 364 458 L 368 457 L 371 457 L 378 461 L 381 459 L 379 455 L 379 447 L 388 442 L 400 442 L 402 440 L 411 440 L 412 442 L 412 445 L 416 447 L 423 443 L 436 443 L 436 434 L 437 431 L 442 430 L 442 423 L 443 422 L 442 413 L 436 406 L 435 394 L 441 392 L 441 387 L 438 382 L 439 378 L 446 377 L 453 386 L 456 386 L 458 384 L 462 384 L 467 388 L 472 385 L 477 387 L 480 391 L 481 399 L 484 402 L 483 405 L 488 406 L 491 399 L 497 396 L 497 392 L 494 387 L 494 383 L 490 380 L 491 377 L 488 375 L 480 364 L 476 361 L 475 365 L 467 362 L 466 358 L 461 354 L 458 356 L 453 352 L 450 346 L 454 343 L 453 341 L 450 337 L 447 337 L 443 334 L 443 330 L 440 328 L 438 327 L 438 324 L 437 322 L 430 321 L 431 318 L 431 316 L 430 316 L 427 312 L 427 309 L 426 307 L 421 307 L 418 304 L 408 303 L 403 292 L 400 288 L 397 289 L 394 283 L 390 279 L 387 276 L 378 267 L 375 267 L 369 264 L 366 262 L 365 255 L 359 247 L 351 243 L 351 241 Z M 109 304 L 104 315 L 104 320 L 107 327 L 108 336 L 113 339 L 114 343 L 111 344 L 111 347 L 115 353 L 120 355 L 124 355 L 133 352 L 136 348 L 136 339 L 138 333 L 138 327 L 143 323 L 145 321 L 146 311 L 138 314 L 115 306 L 115 304 L 109 304 Z M 177 318 L 168 324 L 169 325 L 172 323 L 174 328 L 175 332 L 179 325 L 179 318 L 177 318 Z M 171 339 L 175 348 L 185 359 L 185 360 L 189 360 L 189 357 L 185 349 L 178 341 L 171 339 Z M 137 351 L 127 357 L 126 356 L 118 356 L 117 355 L 115 357 L 116 361 L 122 364 L 120 364 L 120 367 L 128 379 L 130 385 L 137 390 L 148 408 L 152 407 L 155 404 L 152 397 L 152 395 L 148 395 L 145 393 L 144 387 L 137 377 L 137 373 L 134 369 L 134 363 L 138 364 L 140 364 L 143 361 L 139 353 L 137 351 Z M 260 360 L 256 361 L 252 365 L 252 367 L 255 367 L 255 375 L 256 376 L 252 387 L 248 389 L 246 387 L 243 385 L 242 388 L 239 387 L 237 387 L 233 391 L 228 390 L 227 389 L 224 392 L 226 394 L 229 392 L 232 397 L 231 400 L 234 400 L 240 408 L 240 413 L 237 418 L 237 425 L 236 426 L 239 439 L 242 439 L 247 435 L 247 440 L 245 444 L 239 448 L 247 448 L 247 452 L 246 453 L 239 452 L 239 456 L 245 462 L 245 466 L 257 473 L 259 473 L 262 469 L 265 467 L 266 470 L 272 470 L 278 474 L 273 477 L 270 481 L 273 482 L 277 481 L 280 485 L 280 487 L 284 488 L 296 488 L 297 491 L 302 490 L 312 493 L 313 496 L 315 497 L 323 498 L 325 502 L 325 505 L 321 507 L 320 511 L 323 521 L 329 530 L 335 534 L 337 534 L 337 532 L 328 524 L 330 522 L 338 522 L 340 521 L 340 515 L 337 507 L 338 505 L 338 502 L 336 499 L 337 493 L 342 494 L 344 494 L 343 492 L 340 489 L 343 486 L 349 486 L 349 483 L 343 478 L 345 473 L 336 463 L 334 460 L 323 459 L 320 455 L 317 457 L 312 455 L 308 450 L 308 448 L 305 448 L 305 446 L 308 442 L 307 433 L 301 427 L 297 420 L 298 415 L 303 410 L 303 407 L 305 404 L 301 398 L 300 396 L 293 396 L 290 393 L 287 393 L 283 396 L 278 394 L 273 390 L 274 387 L 279 384 L 274 381 L 273 375 L 268 373 L 268 371 L 264 371 L 261 368 L 263 362 L 263 360 L 260 360 Z M 441 379 L 441 383 L 444 388 L 443 392 L 437 395 L 438 405 L 445 415 L 444 431 L 440 433 L 438 434 L 438 445 L 437 446 L 422 446 L 417 449 L 412 447 L 410 447 L 410 442 L 403 442 L 402 444 L 388 444 L 381 448 L 381 453 L 383 457 L 386 458 L 387 461 L 396 465 L 406 465 L 407 468 L 407 472 L 405 477 L 405 487 L 402 491 L 400 493 L 395 493 L 390 503 L 400 507 L 405 505 L 417 506 L 425 518 L 422 521 L 422 523 L 429 524 L 429 529 L 426 533 L 425 539 L 432 540 L 434 543 L 432 548 L 434 556 L 439 555 L 465 555 L 476 553 L 478 545 L 478 542 L 475 537 L 472 526 L 473 523 L 480 517 L 500 515 L 497 510 L 496 504 L 502 501 L 502 495 L 501 494 L 501 486 L 503 483 L 501 473 L 505 473 L 508 475 L 509 477 L 509 480 L 515 478 L 518 478 L 522 481 L 528 480 L 530 478 L 530 476 L 527 473 L 523 467 L 523 459 L 524 457 L 528 453 L 530 453 L 529 456 L 532 457 L 535 461 L 535 465 L 541 467 L 543 462 L 547 459 L 554 458 L 550 453 L 553 451 L 554 450 L 552 448 L 552 444 L 554 440 L 553 436 L 549 431 L 549 429 L 548 429 L 543 425 L 543 421 L 542 419 L 539 419 L 539 422 L 534 425 L 533 420 L 529 415 L 526 412 L 522 406 L 516 408 L 513 405 L 508 404 L 511 398 L 504 393 L 502 396 L 493 399 L 490 407 L 488 408 L 485 408 L 480 405 L 481 402 L 479 400 L 478 392 L 473 387 L 469 390 L 464 389 L 461 386 L 455 389 L 452 388 L 447 382 L 445 379 L 441 379 Z M 224 380 L 223 388 L 225 387 L 229 388 L 230 388 L 230 382 L 224 380 Z M 229 400 L 225 403 L 229 404 L 231 401 L 229 400 Z M 232 415 L 230 416 L 227 421 L 228 424 L 231 425 L 232 424 L 232 419 L 233 418 L 232 415 Z M 230 432 L 228 436 L 228 441 L 233 442 L 234 443 L 235 442 L 235 438 L 233 434 L 233 432 L 230 432 Z M 555 442 L 556 449 L 556 451 L 553 454 L 556 457 L 556 459 L 554 461 L 546 462 L 543 469 L 540 470 L 535 468 L 533 467 L 532 460 L 527 457 L 525 460 L 526 470 L 530 472 L 533 478 L 528 483 L 525 484 L 518 481 L 515 481 L 513 483 L 509 483 L 505 476 L 503 477 L 505 481 L 505 484 L 503 487 L 503 494 L 504 495 L 503 504 L 501 505 L 499 505 L 500 512 L 503 516 L 497 518 L 482 519 L 475 524 L 476 534 L 480 541 L 479 553 L 539 550 L 548 548 L 565 547 L 566 546 L 597 544 L 626 539 L 627 536 L 624 532 L 617 532 L 610 523 L 610 517 L 608 517 L 605 514 L 608 510 L 605 499 L 605 497 L 605 494 L 600 486 L 600 479 L 598 477 L 593 473 L 593 470 L 585 472 L 584 466 L 577 464 L 573 461 L 574 459 L 571 453 L 569 453 L 569 451 L 566 451 L 560 445 L 558 442 L 555 442 Z M 365 460 L 363 466 L 359 470 L 347 474 L 345 477 L 348 478 L 351 483 L 351 487 L 350 488 L 343 488 L 346 494 L 345 497 L 338 496 L 338 499 L 340 501 L 339 506 L 342 515 L 342 522 L 340 525 L 343 535 L 347 537 L 355 539 L 360 529 L 362 529 L 364 532 L 362 539 L 361 540 L 364 543 L 364 546 L 362 549 L 363 553 L 366 555 L 373 553 L 374 557 L 391 557 L 392 556 L 431 556 L 432 554 L 429 549 L 431 544 L 422 540 L 424 532 L 427 526 L 420 525 L 420 520 L 422 518 L 416 512 L 416 508 L 407 508 L 406 507 L 401 510 L 390 506 L 387 503 L 392 493 L 393 491 L 399 491 L 403 486 L 403 476 L 405 471 L 404 467 L 401 468 L 394 467 L 384 460 L 380 463 L 374 462 L 371 460 L 365 460 Z M 227 471 L 222 473 L 222 479 L 225 486 L 231 488 L 232 489 L 232 494 L 234 498 L 234 502 L 232 504 L 236 506 L 238 503 L 242 504 L 248 511 L 250 506 L 255 507 L 256 513 L 252 516 L 256 518 L 259 516 L 261 517 L 262 520 L 259 525 L 267 529 L 265 522 L 271 524 L 274 528 L 274 530 L 272 531 L 269 534 L 269 539 L 272 537 L 274 537 L 278 541 L 282 538 L 284 539 L 285 539 L 285 544 L 289 544 L 292 550 L 291 552 L 287 552 L 287 555 L 298 561 L 301 559 L 305 559 L 307 561 L 312 558 L 316 564 L 312 566 L 309 566 L 309 568 L 324 578 L 333 580 L 355 590 L 357 585 L 362 586 L 362 582 L 359 576 L 354 573 L 354 568 L 358 568 L 358 566 L 350 560 L 343 549 L 340 546 L 321 539 L 314 529 L 317 525 L 305 511 L 306 498 L 303 499 L 305 502 L 304 504 L 300 505 L 298 498 L 296 495 L 290 495 L 269 489 L 265 486 L 254 483 L 246 479 L 243 476 L 241 473 L 227 471 Z M 284 490 L 284 491 L 287 491 L 284 490 Z M 291 490 L 287 492 L 294 493 L 294 490 L 291 490 Z M 316 501 L 311 506 L 311 509 L 313 510 L 314 510 L 314 506 L 318 504 L 318 501 L 316 501 Z " /></svg>
