<svg version="1.1" id="Layer_1" xmlns="http://www.w3.org/2000/svg" xmlns:xlink="http://www.w3.org/1999/xlink" x="0px" y="0px"
	 width="100%" viewBox="0 0 798 737" enable-background="new 0 0 798 737" xml:space="preserve">
<MetaInfo xmlns="http://www.prognoz.ru"><Geo><GeoItem X="0" Y="0" Latitude="61.5" Longitude="-137"/><GeoItem X="638" Y="630" Latitude="49.5" Longitude="-118"/></Geo></MetaInfo>
<path fill="#FEFFFF" opacity="1.000000" stroke="none" 
	d="
M464.000000,738.000000 
	C309.333344,738.000000 155.166672,738.000000 1.000000,738.000000 
	C1.000000,492.333344 1.000000,246.666672 1.000000,1.000000 
	C267.000000,1.000000 533.000000,1.000000 799.000000,1.000000 
	C799.000000,246.666672 799.000000,492.333344 799.000000,738.000000 
	C687.500000,738.000000 576.000000,738.000000 464.000000,738.000000 
M284.081665,402.947021 
	C284.081665,402.947021 284.300537,402.721924 284.097351,403.661621 
	C284.180542,404.927704 284.263702,406.193787 284.250092,408.115417 
	C282.891357,409.114990 281.532623,410.114563 279.486908,411.026031 
	C278.957031,412.346008 278.427124,413.665955 277.961578,415.742126 
	C277.938141,416.499969 277.914703,417.257812 277.296143,418.394958 
	C271.563843,421.924286 270.152771,427.576508 274.175446,432.682556 
	C275.545898,434.695343 276.715881,436.887726 278.326508,438.685364 
	C282.298279,443.118347 286.274139,447.395508 286.188110,453.990234 
	C286.171967,455.228790 287.736572,457.482269 288.723419,457.570496 
	C293.436584,457.991852 294.524506,461.264191 295.095398,465.677917 
	C293.914673,473.300537 291.975128,480.624146 286.723999,486.865753 
	C288.563568,486.235443 289.645599,485.005127 290.923553,484.031952 
	C292.016754,483.199402 293.526459,481.941223 294.498077,482.200012 
	C295.435486,482.449707 296.497467,484.399780 296.496490,485.602051 
	C296.493439,489.347626 298.818726,490.531372 301.669952,490.021790 
	C307.177734,489.037415 312.615540,487.576538 317.999817,486.026459 
	C320.268646,485.373260 323.121490,482.808807 324.056244,486.485321 
	C324.755096,489.234100 324.061920,494.609497 322.538086,495.225189 
	C317.939819,497.082947 314.224915,499.305328 311.232971,503.340057 
	C307.643463,508.180603 302.734467,512.186951 299.878021,517.370667 
	C298.263550,520.300415 298.354736,525.554382 299.961517,528.527039 
	C302.003510,532.304932 306.177155,529.478149 309.390930,528.363159 
	C310.334473,528.035767 311.253204,527.466553 312.214081,527.388977 
	C316.449860,527.046997 320.696838,526.844055 324.939789,526.590820 
	C325.093231,527.289673 325.246674,527.988525 325.400116,528.687378 
	C317.277008,531.845581 306.362823,530.059998 302.696564,540.646301 
	C305.162628,541.720825 307.853210,542.893127 310.543823,544.065491 
	C310.376373,544.560913 310.208923,545.056274 310.041473,545.551636 
	C307.484985,546.103088 304.749847,546.273987 302.443024,547.357117 
	C301.180786,547.949768 300.178986,550.012573 299.941040,551.548889 
	C299.782623,552.571655 301.048859,554.725098 301.902069,554.851074 
	C308.914612,555.886414 315.986725,556.509583 323.025116,557.383850 
	C325.271912,557.662903 327.471649,558.320923 329.692902,558.805603 
	C329.651245,559.603271 329.609589,560.400940 329.567932,561.198608 
	C322.237183,561.726257 314.906433,562.253967 306.973450,562.825012 
	C312.901978,565.802490 317.782532,568.577209 322.939850,570.669922 
	C324.767365,571.411499 327.867462,571.287537 329.346710,570.175476 
	C333.221344,567.262756 336.444366,567.467407 340.208557,570.144836 
	C341.756348,571.245728 343.913818,571.504700 345.808807,572.099304 
	C350.826538,573.674011 352.155273,576.220764 350.507263,581.171021 
	C347.913910,588.960938 348.532318,589.976807 356.734375,592.065063 
	C360.175903,592.941223 364.184052,593.214539 366.843872,595.213318 
	C373.112061,599.923828 384.394012,597.728271 387.119934,590.468018 
	C389.306763,584.643738 391.175629,578.700439 393.254303,572.834290 
	C393.415161,572.380310 394.119415,572.118835 395.214264,571.268066 
	C396.651031,578.831238 396.159180,585.314575 392.235779,591.358704 
	C389.423340,595.691406 388.631409,600.346985 389.475464,605.426819 
	C393.630463,603.711243 397.115875,601.912537 400.812561,600.846924 
	C404.504547,599.782532 408.408112,599.451965 413.025818,598.661560 
	C411.364441,603.594177 407.518402,603.810730 404.538086,604.946411 
	C401.725067,606.018372 399.743347,606.891235 401.243195,610.524353 
	C402.793030,614.278381 401.442749,616.893433 397.471771,618.279541 
	C395.940704,618.813965 394.658264,620.060486 392.523102,621.471069 
	C394.824219,622.847046 396.345612,623.511108 397.565826,624.534363 
	C400.688324,627.152893 404.905792,629.397827 406.379211,632.793030 
	C407.906128,636.311523 409.595459,636.108948 411.966095,635.439392 
	C414.337891,634.769592 416.546204,633.520874 419.198273,633.249817 
	C419.622284,635.158264 420.260223,637.048157 420.427917,638.978821 
	C420.838623,643.707336 420.450745,648.618042 421.705139,653.084412 
	C422.036011,654.262573 427.168121,654.091064 430.094635,654.544983 
	C430.256744,654.570190 430.408295,654.656982 430.569092,654.698181 
	C436.645142,656.255981 442.167297,654.575073 447.163452,652.043823 
	C448.311371,654.752258 450.127960,657.427002 450.506256,660.291565 
	C451.146088,665.136292 451.253967,670.130005 450.879395,675.006897 
	C450.526703,679.598816 452.593964,680.133118 456.396545,680.059265 
	C480.257812,679.595947 504.122467,679.309021 528.832520,679.015442 
	C530.951599,679.349609 533.069641,679.965515 535.189880,679.972778 
	C550.504089,680.025452 565.818726,679.955017 582.042847,679.968140 
	C589.668274,679.670715 597.292725,679.342041 604.919373,679.081848 
	C625.830444,678.368408 646.746826,677.792297 667.652222,676.943359 
	C678.580811,676.499573 689.503174,675.749817 700.405945,674.862427 
	C714.429504,673.721130 728.432312,672.322266 742.440491,670.996094 
	C749.527405,670.325012 756.634094,669.755615 763.667358,668.707581 
	C765.207336,668.478088 767.807495,665.535034 767.663635,665.314819 
	C765.635559,662.209106 763.678711,658.740295 760.790588,656.583313 
	C755.821655,652.872437 748.703308,651.287415 749.804810,642.751343 
	C749.910645,641.931091 748.643921,640.942871 748.035461,640.018799 
	C747.343994,638.968750 746.275146,637.978821 746.058472,636.832703 
	C742.880005,620.020203 740.929138,602.895813 732.748474,587.067444 
	C731.605774,587.067444 730.020874,586.715088 728.672791,587.130798 
	C723.863525,588.613647 721.140564,586.894165 719.535522,582.253479 
	C718.993042,580.685120 717.530945,579.165894 716.095154,578.226196 
	C711.848389,575.446838 707.631775,573.223633 707.518494,566.862366 
	C707.472839,564.298584 704.658691,560.178406 702.350037,559.553345 
	C694.536499,557.437927 690.472778,550.495483 684.005005,546.067261 
	C684.376831,541.456909 681.640564,538.919495 678.235962,536.382019 
	C675.770691,534.544678 672.872986,531.978577 672.260986,529.265381 
	C671.306335,525.032898 669.793274,523.995850 666.260986,525.923645 
	C662.755188,527.836914 661.108948,526.130188 659.629578,523.252258 
	C658.750244,521.541626 657.917114,519.113037 656.451599,518.520874 
	C650.799927,516.237244 647.989441,512.590942 648.789673,506.401886 
	C648.833374,506.063904 648.287292,505.649658 647.890503,505.096344 
	C647.077698,505.301300 646.309814,505.562531 645.520508,505.683380 
	C639.018616,506.678741 636.125061,504.551208 634.933472,498.142792 
	C634.744385,497.126038 634.065247,496.040955 633.299561,495.319946 
	C630.714661,492.885651 627.988708,490.601105 624.898499,487.892792 
	C624.503967,488.790497 623.811401,490.479614 623.023682,492.123108 
	C622.402771,493.418488 621.664612,494.657654 620.978516,495.921814 
	C619.898743,494.874603 618.819031,493.827423 617.684509,492.076904 
	C616.143982,486.542603 614.110840,481.085541 613.227295,475.448273 
	C612.583374,471.339844 610.439819,468.966766 607.122131,467.755371 
	C603.236755,466.336609 601.465149,463.721405 600.085449,460.066071 
	C598.527954,455.939606 596.227417,452.093567 594.250061,448.125580 
	C593.864990,448.138000 593.479919,448.150452 593.094788,448.162872 
	C592.532532,450.647766 591.970276,453.132629 591.324951,455.984680 
	C586.554932,453.183899 579.768250,453.107666 580.900513,445.107056 
	C580.979980,444.545563 579.094482,443.029449 578.255676,443.124969 
	C573.043091,443.718536 569.590332,442.184326 566.341370,437.549011 
	C562.927063,432.677704 562.100647,432.302551 566.299683,426.861053 
	C564.531433,425.252747 562.410339,423.839539 560.993042,421.909515 
	C559.020447,419.223450 557.574951,416.150330 556.037537,412.282837 
	C555.801758,371.971832 555.549500,331.660950 555.333984,291.349823 
	C554.973328,223.884552 554.612427,156.419250 554.353394,88.953568 
	C554.339294,85.287376 553.692932,83.681229 549.476990,83.686600 
	C532.324402,83.708466 515.166870,83.501884 498.019592,83.055023 
	C473.884979,82.426064 449.752960,81.630692 425.629669,80.662224 
	C414.159607,80.201729 402.714752,79.135628 391.253876,78.417839 
	C376.975342,77.523582 362.692047,76.705711 347.679871,75.426163 
	C336.925873,74.321411 326.140411,73.458847 315.423492,72.068329 
	C277.151642,67.102562 238.798782,62.628777 200.672440,56.707634 
	C154.773605,49.579407 109.430885,39.604782 64.960106,25.969366 
	C61.337936,24.858753 57.633518,24.016407 53.924850,22.822273 
	C53.924850,22.822273 53.660656,22.762497 53.660656,22.762497 
	C53.660656,22.762497 54.031029,22.990261 54.029850,23.818743 
	C53.880695,33.280613 59.738029,40.280731 64.228699,47.694771 
	C69.574585,56.520779 76.013023,64.647758 75.386177,75.907585 
	C75.130234,80.504936 76.152473,85.173431 76.718498,91.127556 
	C79.147659,89.056793 80.380745,88.248657 81.304718,87.174591 
	C84.730232,83.192635 89.001068,81.573647 94.198418,82.060371 
	C96.180977,82.246025 98.205360,81.987251 100.187424,82.175674 
	C104.785583,82.612808 106.511581,80.218712 106.672928,76.019417 
	C106.775002,73.362434 106.773170,70.668709 107.241158,68.067612 
	C107.722206,65.393936 109.056549,63.638844 112.065788,65.827995 
	C112.787262,66.352867 113.705070,66.607857 114.827904,67.122253 
	C115.180153,65.997704 115.698044,65.206078 115.609215,64.489677 
	C114.977013,59.391129 117.581085,58.812733 122.037788,58.509460 
	C126.794830,58.185749 131.397934,55.941612 136.141403,54.855286 
	C137.456680,54.554070 139.210068,55.082745 140.433685,55.795280 
	C141.477707,56.403229 142.043274,57.826298 142.832108,58.880093 
	C146.782471,64.157295 150.691711,69.351837 147.763474,76.648804 
	C146.320084,80.245628 147.121292,83.233948 149.902786,86.584305 
	C153.529266,90.952446 156.869354,96.177849 158.303604,101.573708 
	C159.762054,107.060577 162.691925,110.829491 165.997742,115.063354 
	C171.136444,121.644676 177.867905,128.696381 178.977646,136.273193 
	C180.347244,145.624191 183.703125,153.686768 187.063599,162.898926 
	C189.957367,174.654633 192.842575,186.412491 195.769180,198.160019 
	C195.922379,198.774994 196.404663,199.317520 196.772263,199.868073 
	C201.282181,206.622391 201.094650,208.311462 194.630615,213.584061 
	C196.426300,214.286499 197.979004,214.627014 199.213577,215.446701 
	C200.648148,216.399185 202.588120,217.576752 202.941086,218.996628 
	C204.274200,224.358994 205.293121,229.829178 205.980148,235.315277 
	C206.931870,242.914917 206.882523,242.780975 214.368668,244.262192 
	C217.101410,244.802902 220.320679,246.152451 221.973969,248.211929 
	C225.598846,252.727356 231.877289,255.012283 233.193161,261.536957 
	C233.393036,262.527954 235.096130,263.819183 236.206711,263.928650 
	C245.964096,264.890167 246.738800,277.012665 255.460159,279.368469 
	C256.387573,279.618988 257.164368,282.681213 256.974365,284.318817 
	C256.637726,287.220215 255.489853,290.025085 254.708847,292.877838 
	C253.675858,296.651001 252.198242,300.379791 251.777191,304.222473 
	C251.309448,308.491272 252.047272,312.880493 251.791992,317.189545 
	C251.678253,319.109467 250.879211,321.391479 249.595535,322.766174 
	C245.232697,327.438354 245.442230,332.715973 246.169632,338.815399 
	C249.790649,337.224213 253.076691,335.412872 254.334595,340.722748 
	C251.792023,341.556763 248.654190,341.633759 247.274612,343.230133 
	C244.069778,346.938690 241.584854,351.143433 237.839737,354.589020 
	C235.744995,356.516235 235.646835,360.681152 234.794403,363.876556 
	C233.202393,369.844482 236.337219,374.912750 238.586685,379.918915 
	C239.193695,381.269806 242.917114,381.207062 245.195251,381.845947 
	C245.376968,381.896912 245.442841,382.360901 245.720703,382.992371 
	C240.912292,384.028320 238.838455,387.225708 238.821060,392.768402 
	C239.712143,394.521332 240.603210,396.274231 241.803268,398.187714 
	C242.018555,398.316467 242.144745,398.504852 241.992401,399.455658 
	C241.599701,400.020416 241.206985,400.585144 240.202957,400.725525 
	C238.512131,399.590576 236.821289,398.455597 235.130447,397.320618 
	C234.488693,397.895416 233.846939,398.470245 233.205185,399.045044 
	C236.079758,405.255981 239.003174,411.444946 241.812988,417.685059 
	C243.946640,422.423553 245.935791,427.227173 247.522476,432.368530 
	C248.048325,433.161407 248.574173,433.954285 249.100021,434.747162 
	C249.775131,434.278778 250.450256,433.810425 251.415695,432.707001 
	C251.771423,431.851227 252.127151,430.995453 253.114319,429.816132 
	C253.372055,427.089294 253.629791,424.362457 253.892700,421.580933 
	C254.171707,421.603241 254.798141,421.653351 255.775162,421.964111 
	C255.985077,422.177551 256.125549,422.429688 256.144226,423.442535 
	C256.861359,423.893982 257.578522,424.345428 258.902924,425.028290 
	C262.920166,426.555115 263.502014,423.899567 264.208893,420.329590 
	C264.450745,418.874573 264.692596,417.419556 265.004486,415.963531 
	C265.004486,415.963531 264.960693,415.908875 265.732941,415.565826 
	C266.339081,415.858124 266.963318,416.118469 267.547699,416.449188 
	C268.819641,417.169037 270.438263,418.832916 271.263885,418.499268 
	C273.980103,417.401550 274.536011,414.509491 272.982056,411.332489 
	C272.997559,410.571808 273.013092,409.811096 273.370392,408.483215 
	C275.468781,406.579376 277.567169,404.675537 280.576172,402.963928 
	C281.808319,402.875214 283.040436,402.786499 284.081665,402.947021 
M274.253265,463.749847 
	C274.250824,465.199493 274.248413,466.649139 274.065063,468.147614 
	C274.065063,468.147614 274.128723,468.323883 273.502808,468.574463 
	C270.882019,469.392761 268.683228,470.356567 272.150757,473.767334 
	C272.894440,474.492706 273.638123,475.218109 274.454254,476.485382 
	C275.634491,476.651489 276.814697,476.817596 278.857819,477.194183 
	C279.276917,475.807373 279.696014,474.420532 280.340240,472.536804 
	C279.981049,471.503754 279.621826,470.470703 279.466431,468.988403 
	C279.395813,468.511047 279.325195,468.033661 279.678314,467.003845 
	C279.822327,465.648407 279.966309,464.292969 280.486694,462.314636 
	C280.522461,461.836517 280.558197,461.358398 281.072723,460.328949 
	C281.220917,458.868347 281.369110,457.407745 281.718628,455.182434 
	C281.639404,454.139618 281.560181,453.096771 281.677216,451.382324 
	C281.140228,450.207642 280.603271,449.032959 280.004944,447.130096 
	C277.582153,443.764557 275.159363,440.399048 272.751221,436.443359 
	C272.162079,435.971802 271.572937,435.500214 270.996460,434.996521 
	C270.996460,434.996521 270.968750,435.018616 270.601776,434.425568 
	C268.714203,434.110931 266.826599,433.796295 265.202240,433.525513 
	C264.056519,432.161194 262.968475,430.865509 261.880371,429.569824 
	C260.664825,430.787903 259.318542,431.905182 258.276367,433.256927 
	C257.486664,434.281189 256.787506,435.559418 256.598572,436.807922 
	C256.429199,437.927399 257.011108,439.160522 257.261597,440.343506 
	C258.550659,439.961060 260.176117,439.936859 261.052063,439.114441 
	C262.458618,437.793762 263.369537,435.945160 264.489929,434.319641 
	C264.875763,434.477997 265.261627,434.636353 265.647461,434.794708 
	C265.647461,436.884918 265.647461,438.975159 265.221741,441.523529 
	C265.164093,441.723846 265.106476,441.924194 264.467407,442.334778 
	C263.976929,444.226227 263.486450,446.117645 263.416656,448.766449 
	C263.655762,448.928375 263.894836,449.090302 264.134338,450.011841 
	C264.069427,452.051270 264.004517,454.090698 264.037415,456.702576 
	C264.437164,457.108459 264.836884,457.514343 265.300537,458.506592 
	C265.861603,459.016968 266.422638,459.527374 267.140106,460.504456 
	C267.331970,460.798370 267.601440,460.971283 268.282898,461.669769 
	C270.246552,461.931488 272.210236,462.193176 274.119568,462.720093 
	C274.119568,462.720093 274.335052,462.883972 274.253265,463.749847 
M389.855164,673.847961 
	C390.028809,674.015320 390.202454,674.182617 390.047089,674.948486 
	C387.300323,677.107544 384.483948,679.184753 381.824982,681.447021 
	C378.734619,684.076477 378.303253,687.911926 381.019501,690.542969 
	C383.691803,693.131470 386.449402,691.993103 389.049774,689.990784 
	C390.294617,689.032166 391.728271,688.318787 393.076447,687.494324 
	C393.439514,687.887512 393.802612,688.280640 394.165710,688.673828 
	C393.014923,690.463318 391.864136,692.252808 390.210510,694.824219 
	C392.445679,695.860352 394.548004,696.938477 396.728577,697.823914 
	C401.152588,699.620300 406.022156,700.675598 409.982452,703.182556 
	C417.839600,708.156494 425.158661,712.652100 435.227600,708.821045 
	C442.190338,706.171875 442.970673,705.559875 438.453064,699.291809 
	C437.863342,700.457275 437.260712,701.648315 436.714539,702.727722 
	C434.847992,698.339966 433.108124,694.285645 431.408661,690.214600 
	C431.167633,689.637268 430.786804,688.692993 431.036377,688.399231 
	C435.696289,682.914490 430.656738,682.353149 427.304352,681.221436 
	C427.329041,674.210693 426.643066,671.134521 421.472382,665.509766 
	C417.959473,661.688416 413.481873,658.679321 409.142090,655.740601 
	C407.934387,654.922729 405.619476,655.363037 403.919830,655.727173 
	C400.392120,656.482666 397.407898,657.017639 396.290009,652.198364 
	C395.940979,650.693481 393.773285,649.689880 392.731293,648.245361 
	C391.558258,646.619080 389.965302,644.792053 389.873627,642.985413 
	C389.615967,637.910034 388.419006,633.574890 384.313721,630.183777 
	C383.000824,629.099304 382.383636,627.172729 381.757050,624.917114 
	C381.293121,623.916748 380.829193,622.916382 380.135223,621.301880 
	C380.085083,620.869019 380.034943,620.436218 380.456818,619.671326 
	C379.932312,619.135620 379.407806,618.599915 378.258484,617.938171 
	C377.834686,617.907776 377.410889,617.877380 377.134460,617.086792 
	C378.824463,612.395874 377.914368,608.332520 373.912231,604.244324 
	C373.099731,600.597351 370.291962,598.737854 367.258057,600.013062 
	C358.519958,603.685791 353.262573,595.749268 346.107025,594.292114 
	C341.737091,593.402161 337.533112,591.503174 333.390564,589.738220 
	C327.843658,587.375061 322.428406,584.702820 316.956573,582.163391 
	C314.705017,581.118469 312.491791,579.326111 310.192474,579.207764 
	C306.913666,579.039001 304.794586,578.063904 303.541962,575.085144 
	C301.913300,571.212219 298.646271,569.827148 294.876434,568.340942 
	C285.160065,564.510437 277.215729,569.705627 268.672913,572.107239 
	C269.647552,577.154907 269.905396,577.131836 275.547882,578.823730 
	C277.859924,579.517029 281.104858,580.890442 281.689880,582.683777 
	C282.620453,585.536255 283.969910,585.764038 286.293060,585.836243 
	C291.275055,585.991028 296.251251,586.332458 301.229828,586.597473 
	C301.322601,587.381714 301.415375,588.166016 301.508148,588.950317 
	C298.498718,589.698914 295.524445,590.692383 292.470490,591.130798 
	C289.066559,591.619507 287.179779,592.816895 289.387482,596.232483 
	C291.386688,599.325500 291.141876,602.014099 289.377594,605.072144 
	C288.832092,606.017700 289.027924,608.397522 289.686829,608.797058 
	C290.690887,609.405823 292.620667,609.295044 293.745697,608.704895 
	C295.365936,607.855164 296.616852,606.301147 298.971863,604.205505 
	C299.176636,611.111206 303.475342,607.632874 306.295685,608.248718 
	C306.295685,610.474487 306.295685,612.436646 306.295685,614.398804 
	C306.551117,614.429504 306.806580,614.460144 307.062012,614.490845 
	C308.077332,612.342468 309.092621,610.194031 310.119293,608.021606 
	C315.286224,610.872070 315.277496,611.731445 311.732117,615.904480 
	C310.608124,617.227478 309.551819,620.049194 310.205078,621.175903 
	C312.332794,624.845581 318.258728,624.641479 320.899841,621.208008 
	C321.767578,620.079895 322.540131,618.878723 323.314087,617.771301 
	C329.989319,620.915283 331.245392,625.945068 328.501068,633.196350 
	C332.463043,631.641418 334.942596,630.668335 337.682831,629.592896 
	C338.228333,632.359497 338.667328,634.585938 338.846313,635.493774 
	C335.300568,638.662109 332.189117,640.929810 329.829407,643.812744 
	C328.932739,644.908142 329.764862,647.418701 329.809052,649.284241 
	C331.315887,648.905701 332.851990,648.614319 334.320190,648.120850 
	C335.479065,647.731445 336.554413,647.093384 337.666870,646.565796 
	C339.883209,651.305786 344.186310,651.361450 348.538513,651.612427 
	C349.980347,651.695557 351.370728,652.670532 352.784637,653.237793 
	C352.067963,653.759155 351.351318,654.280518 350.634674,654.801880 
	C349.971008,656.523682 349.307343,658.245483 348.643677,659.967285 
	C350.952911,659.832397 353.262146,659.697510 355.833588,659.547302 
	C355.690552,660.291626 355.638275,661.092773 355.380646,661.821350 
	C353.017731,668.503845 353.328094,668.293091 359.825226,671.837280 
	C364.807159,674.554871 369.469910,675.965881 374.971863,674.084595 
	C376.127258,673.689514 377.601959,674.350037 378.911499,674.260498 
	C382.401733,674.021973 385.882141,673.639832 389.855164,673.847961 
M179.807663,394.611450 
	C185.134109,390.495422 189.107071,385.607239 189.468964,377.789276 
	C183.190353,380.661438 177.433807,379.822693 172.334076,376.717865 
	C168.361526,374.299286 164.956772,372.323456 160.637253,377.259460 
	C160.637253,375.293335 160.897964,374.279327 160.585648,373.492920 
	C159.819641,371.564087 159.089539,368.431152 157.805237,368.136688 
	C154.793289,367.446075 149.343201,367.068390 148.646149,368.455963 
	C146.132767,373.459229 144.344971,379.175476 143.877335,384.756012 
	C143.444321,389.923096 144.727386,395.337402 145.930145,400.485046 
	C146.383789,402.426605 148.593582,405.219696 150.241592,405.396271 
	C156.521515,406.069092 157.498398,411.114319 160.756912,415.894958 
	C157.511169,415.234497 155.413589,414.807678 153.140137,414.345093 
	C152.382782,419.091827 152.891586,422.150238 158.186020,422.286011 
	C161.721466,422.376740 166.209229,424.547577 168.590530,423.073364 
	C175.724808,418.656647 177.442093,410.875916 178.014435,402.878967 
	C178.197159,400.325928 178.930984,397.812347 179.807663,394.611450 
M163.653061,433.903473 
	C163.132187,435.492249 163.076965,437.623871 161.991760,438.554810 
	C159.852188,440.390198 159.872101,442.238190 161.741791,443.500549 
	C167.514023,447.397858 170.587952,453.114777 173.532883,459.112183 
	C176.370209,464.890442 179.611328,470.473145 182.759094,476.094696 
	C183.872101,478.082397 185.092926,480.043732 186.515213,481.815918 
	C188.421021,484.190491 190.647385,486.306183 192.584534,488.657867 
	C193.638565,489.937531 194.379089,491.475464 195.848160,493.843201 
	C196.786987,491.485260 197.554672,490.339203 197.672409,489.129883 
	C198.273178,482.959137 195.229446,478.500092 191.092773,474.215546 
	C187.110184,470.090546 183.209534,465.629456 180.443802,460.663849 
	C178.016983,456.306732 177.014191,451.092590 175.849014,446.147034 
	C175.595734,445.072052 177.141266,443.349670 178.194000,442.245544 
	C179.600861,440.770142 182.702805,439.597443 182.693680,438.311646 
	C182.653030,432.581757 181.763214,426.857880 181.111511,420.456512 
	C173.260651,429.998016 171.455032,430.510742 159.350204,427.561859 
	C158.151962,427.269928 156.820999,427.522766 155.551636,427.522766 
	C155.433975,428.051971 155.316315,428.581177 155.198654,429.110382 
	C157.860748,430.506317 160.522858,431.902252 163.653061,433.903473 
M227.850266,420.767853 
	C231.545151,425.177032 235.185013,429.634338 238.970261,433.964539 
	C240.030106,435.176971 241.518250,436.015015 242.809937,437.024811 
	C243.250671,435.084381 244.563736,432.822754 243.987167,431.256927 
	C240.815430,422.643311 235.790161,415.127228 228.701492,409.216858 
	C227.438049,408.163452 225.199554,408.279510 223.489639,407.874176 
	C221.605270,413.591431 223.108444,417.406250 227.850266,420.767853 
M314.789246,494.208984 
	C315.906708,493.200195 317.024139,492.191437 318.141602,491.182648 
	C317.884491,490.782227 317.627350,490.381805 317.370209,489.981384 
	C310.424866,491.190491 303.934479,493.710602 298.465881,498.359436 
	C297.388489,499.275421 297.190186,501.767426 297.376587,503.444824 
	C297.509155,504.638062 298.801270,506.302094 299.888306,506.594482 
	C300.714539,506.816742 302.503479,505.451324 303.050262,504.377808 
	C305.484741,499.598236 308.801453,495.983948 314.789246,494.208984 
M259.685791,472.782288 
	C261.397736,473.999146 263.109650,475.215973 264.821564,476.432831 
	C265.480743,474.865356 266.390472,473.353607 266.753662,471.720337 
	C268.008820,466.075958 263.684265,462.564362 261.213196,458.413788 
	C260.769714,457.668976 258.743774,457.866333 256.875427,457.523529 
	C257.820953,462.963715 258.612366,467.517395 259.685791,472.782288 
M225.700485,392.814117 
	C226.966782,394.089783 228.233093,395.365448 229.499405,396.641144 
	C230.598053,395.127625 232.309204,393.733521 232.633713,392.069061 
	C233.004028,390.169617 232.779800,387.411438 231.604492,386.193207 
	C230.697327,385.252808 227.922897,386.093567 225.980743,386.186066 
	C225.496155,386.209198 225.025192,386.440643 224.538498,386.508667 
	C219.090851,387.269806 218.214691,389.026276 220.688492,393.786682 
	C222.235046,393.252808 223.746216,392.731171 225.700485,392.814117 
M291.897583,510.540955 
	C292.393158,507.900238 292.888763,505.259521 293.384338,502.618774 
	C293.115295,502.299072 292.846252,501.979370 292.577209,501.659698 
	C291.090179,502.759552 288.818756,503.564301 288.271820,505.017914 
	C286.943542,508.547882 286.417053,512.379578 285.567474,516.089722 
	C287.360504,515.932068 289.398712,516.228027 290.852325,515.442383 
	C291.691132,514.988953 291.585968,512.789062 291.897583,510.540955 
M291.613800,536.819763 
	C294.271301,538.133362 296.184448,537.339478 295.636353,534.370605 
	C295.091370,531.418457 293.723145,528.529846 292.229492,525.888428 
	C291.692383,524.938660 289.739105,524.789734 288.432129,524.275330 
	C287.957642,525.569763 286.793671,527.099609 287.140015,528.113708 
	C288.117065,530.974609 289.714294,533.623718 291.613800,536.819763 
z"/>
<path fill="#727BA9" opacity="1.000000" stroke="none" 
	d="
M348.410797,75.854858 
	C362.692047,76.705711 376.975342,77.523582 391.253876,78.417839 
	C402.714752,79.135628 414.159607,80.201729 425.629669,80.662224 
	C449.752960,81.630692 473.884979,82.426064 498.019592,83.055023 
	C515.166870,83.501884 532.324402,83.708466 549.476990,83.686600 
	C553.692932,83.681229 554.339294,85.287376 554.353394,88.953568 
	C554.612427,156.419250 554.973328,223.884552 555.333984,291.349823 
	C555.549500,331.660950 555.801758,371.971832 555.621094,412.687927 
	C553.320984,411.334015 551.438354,409.573914 549.553467,407.816376 
	C547.627197,406.020203 545.984314,403.619843 543.714905,402.551025 
	C538.004822,399.861877 534.149292,395.555023 530.970154,390.331848 
	C528.188110,385.761169 524.322144,382.395996 518.971985,381.225677 
	C514.515930,380.250946 512.351807,377.297699 512.185547,373.124847 
	C511.972382,367.773346 508.967407,365.268219 504.474548,363.239838 
	C501.763733,362.016022 498.998413,359.998779 497.301727,357.599640 
	C489.596375,346.703979 481.065857,336.967346 468.158997,331.956146 
	C466.025330,331.127747 463.978363,329.134125 462.729309,327.151184 
	C459.379303,321.832764 456.467316,316.237213 453.413605,310.733826 
	C451.509766,307.302704 448.178162,305.943054 444.973877,307.194580 
	C442.867584,308.017334 441.049408,310.873444 440.164825,313.219604 
	C438.890991,316.598206 438.582794,320.340881 437.534698,323.743164 
	C436.040070,321.965424 434.646759,320.490204 433.747803,318.758423 
	C430.759796,313.002075 428.061249,307.094818 425.045227,301.353882 
	C420.311737,292.343811 413.139374,287.316010 402.556213,287.773499 
	C396.407135,288.039337 390.240295,287.932953 384.081573,287.925171 
	C379.714081,287.919678 376.713531,285.657898 375.475311,281.614990 
	C374.616150,278.809784 374.208130,275.775726 374.148560,272.832825 
	C373.950836,263.064667 363.880707,256.086487 354.734863,259.652466 
	C351.432800,260.939941 348.276703,261.547821 345.364594,259.017334 
	C338.173492,252.768555 332.989838,245.100327 330.377777,235.956390 
	C329.896515,234.271744 331.410736,230.332169 332.395447,230.192459 
	C337.977264,229.400421 338.438385,225.501419 339.282318,221.251434 
	C339.922333,218.028610 341.166565,214.852280 342.601196,211.876694 
	C345.261597,206.358688 346.717926,206.228058 351.199585,210.548004 
	C355.041077,214.250946 358.461060,213.400513 359.994110,208.262451 
	C360.412628,206.859772 360.654083,205.304245 360.532379,203.856216 
	C359.543762,192.092682 363.029114,188.437668 374.875977,188.997437 
	C385.486542,189.498779 396.092834,190.161255 406.709167,190.429123 
	C410.057129,190.513596 414.363434,190.734879 415.499756,186.457672 
	C416.580505,182.389618 414.513458,178.742828 410.922638,176.787216 
	C407.611328,174.983810 403.895996,173.733353 400.212677,172.843811 
	C393.881775,171.314865 388.576202,168.492966 383.920807,163.782303 
	C380.486603,160.307358 376.388397,157.039536 371.965546,155.079620 
	C361.095398,150.262650 359.741211,148.534378 361.757172,136.992477 
	C362.523926,132.602585 361.844147,128.904694 358.368561,125.655441 
	C356.512451,123.920212 355.120514,121.448082 354.146423,119.053345 
	C350.746674,110.695274 347.397827,102.300926 344.520233,93.755157 
	C343.607452,91.044403 343.641235,87.679398 344.303162,84.863251 
	C345.043701,81.712685 346.989502,78.845413 348.410797,75.854858 
z"/>
<path fill="#FEAA28" opacity="1.000000" stroke="none" 
	d="
M348.045349,75.640511 
	C346.989502,78.845413 345.043701,81.712685 344.303162,84.863251 
	C343.641235,87.679398 343.607452,91.044403 344.520233,93.755157 
	C347.397827,102.300926 350.746674,110.695274 354.146423,119.053345 
	C355.120514,121.448082 356.512451,123.920212 358.368561,125.655441 
	C361.844147,128.904694 362.523926,132.602585 361.757172,136.992477 
	C359.741211,148.534378 361.095398,150.262650 371.965546,155.079620 
	C376.388397,157.039536 380.486603,160.307358 383.920807,163.782303 
	C388.576202,168.492966 393.881775,171.314865 400.212677,172.843811 
	C403.895996,173.733353 407.611328,174.983810 410.922638,176.787216 
	C414.513458,178.742828 416.580505,182.389618 415.499756,186.457672 
	C414.363434,190.734879 410.057129,190.513596 406.709167,190.429123 
	C396.092834,190.161255 385.486542,189.498779 374.875977,188.997437 
	C363.029114,188.437668 359.543762,192.092682 360.532379,203.856216 
	C360.654083,205.304245 360.412628,206.859772 359.994110,208.262451 
	C358.461060,213.400513 355.041077,214.250946 351.199585,210.548004 
	C346.717926,206.228058 345.261597,206.358688 342.601196,211.876694 
	C341.166565,214.852280 339.922333,218.028610 339.282318,221.251434 
	C338.438385,225.501419 337.977264,229.400421 332.395447,230.192459 
	C331.410736,230.332169 329.896515,234.271744 330.377777,235.956390 
	C332.989838,245.100327 338.173492,252.768555 345.364594,259.017334 
	C348.276703,261.547821 351.432800,260.939941 354.734863,259.652466 
	C363.880707,256.086487 373.950836,263.064667 374.148560,272.832825 
	C374.208130,275.775726 374.616150,278.809784 375.475311,281.614990 
	C376.713531,285.657898 379.714081,287.919678 384.081573,287.925171 
	C390.240295,287.932953 396.407135,288.039337 402.556213,287.773499 
	C413.139374,287.316010 420.311737,292.343811 425.045227,301.353882 
	C428.061249,307.094818 430.759796,313.002075 433.747803,318.758423 
	C434.646759,320.490204 436.040070,321.965424 437.536316,324.089142 
	C438.230133,333.585632 438.704468,333.891296 447.358032,336.277924 
	C449.135345,336.768097 451.175720,339.159485 451.634552,341.032288 
	C452.938293,346.353424 451.498352,351.206818 447.398315,355.138702 
	C444.994049,357.444397 442.631714,357.730377 440.684387,354.909119 
	C438.941223,352.383636 436.687469,350.489990 434.294495,352.792603 
	C433.154816,353.889221 433.993042,357.197876 434.216400,359.476990 
	C434.304840,360.379517 435.039581,361.307343 435.679138,362.052856 
	C439.894775,366.966431 439.271088,371.960175 436.401367,377.292511 
	C433.029205,383.558472 433.629425,384.867462 440.209930,387.640594 
	C445.592865,389.909027 446.235107,391.636719 445.390991,397.749603 
	C445.136322,399.593933 446.009796,402.365753 447.374969,403.520142 
	C451.802338,407.263977 452.176636,411.909760 447.741760,415.520020 
	C443.939758,418.615173 443.949890,420.241852 447.373047,423.959778 
	C449.372131,426.130981 451.276794,428.452362 452.810120,430.959290 
	C453.460907,432.023346 453.603027,434.584198 453.005066,434.973663 
	C451.844482,435.729675 449.993683,435.577515 448.434967,435.540833 
	C444.561829,435.449738 440.597870,434.601349 436.843842,435.180908 
	C431.622650,435.986938 426.542389,438.313202 421.406158,435.136597 
	C417.937744,432.991547 415.184845,433.762024 412.688934,436.808289 
	C410.411102,439.588379 407.884064,439.858856 404.882019,437.561188 
	C403.424438,436.445648 401.411804,436.055359 399.650452,435.336731 
	C399.115692,437.137604 398.239288,438.914154 398.108826,440.743866 
	C397.679291,446.767242 397.519989,452.809875 397.259705,458.780640 
	C391.733337,458.780640 387.406860,459.005798 383.110992,458.738434 
	C370.205750,457.935242 357.312500,456.939972 344.176544,455.826019 
	C342.394623,453.793945 341.021179,450.588226 339.275177,450.370605 
	C333.786865,449.686371 333.619110,446.624969 334.246246,442.450317 
	C334.760986,439.023895 333.122131,437.536469 329.670837,438.066284 
	C328.546051,438.238983 327.407715,438.323608 326.274719,438.060608 
	C325.722382,432.195618 324.667908,427.111664 318.499878,424.953766 
	C317.253082,424.517578 316.177338,423.094696 315.412506,421.881104 
	C313.754333,419.249939 312.498138,416.363098 310.811798,413.752472 
	C304.900543,404.601257 304.497131,399.320770 310.916748,394.368164 
	C315.724518,390.659058 320.270172,387.425720 322.528076,381.308411 
	C323.590057,378.431335 323.848083,376.956818 321.657806,374.919525 
	C320.287018,373.644379 318.667053,372.004883 318.373993,370.317810 
	C317.354919,364.451263 316.936798,358.483276 316.156097,352.571564 
	C315.372375,346.637085 317.912476,343.638641 323.915802,344.016785 
	C326.031403,344.150024 328.395752,344.503448 330.144379,345.575439 
	C337.925537,350.345490 343.676422,344.705688 349.930725,341.914551 
	C350.636200,341.599701 351.275879,339.080841 350.815796,338.532745 
	C346.713379,333.645447 348.728973,324.887909 340.459106,322.557281 
	C337.878021,321.829895 335.571228,319.907654 333.328247,318.272552 
	C331.546173,316.973450 329.237427,315.557220 328.602295,313.700470 
	C327.307281,309.914612 324.803955,308.381500 321.378326,306.887604 
	C315.654724,304.391602 306.919373,303.699097 310.901672,293.440216 
	C310.935089,293.354065 310.726105,293.173859 310.319214,292.595093 
	C308.698151,292.985565 306.894897,293.419891 303.261566,294.295013 
	C304.929077,289.844116 305.345184,284.549774 307.659912,283.519012 
	C311.284302,281.905060 312.984497,280.054474 313.678680,276.608765 
	C314.573486,272.167267 315.470825,268.311981 320.979553,266.671967 
	C325.313110,265.381775 326.848145,258.473114 323.954132,256.319061 
	C320.066467,253.425400 315.988037,250.691513 311.690918,248.470657 
	C307.031677,246.062637 304.274170,242.613098 302.990814,237.587326 
	C302.308807,234.916580 301.478577,231.922562 299.720276,229.970840 
	C296.957733,226.904449 296.338654,223.757401 296.733521,219.900879 
	C297.955109,207.970749 298.797943,195.997894 300.242798,184.096863 
	C300.701813,180.316101 299.428680,179.442978 296.178436,179.126907 
	C292.208344,178.740845 288.274658,177.973343 284.328186,177.352173 
	C251.922913,172.251663 219.518295,167.146835 187.113495,162.043304 
	C183.703125,153.686768 180.347244,145.624191 178.977646,136.273193 
	C177.867905,128.696381 171.136444,121.644676 165.997742,115.063354 
	C162.691925,110.829491 159.762054,107.060577 158.303604,101.573708 
	C156.869354,96.177849 153.529266,90.952446 149.902786,86.584305 
	C147.121292,83.233948 146.320084,80.245628 147.763474,76.648804 
	C150.691711,69.351837 146.782471,64.157295 142.832108,58.880093 
	C142.043274,57.826298 141.477707,56.403229 140.433685,55.795280 
	C139.210068,55.082745 137.456680,54.554070 136.141403,54.855286 
	C131.397934,55.941612 126.794830,58.185749 122.037788,58.509460 
	C117.581085,58.812733 114.977013,59.391129 115.609215,64.489677 
	C115.698044,65.206078 115.180153,65.997704 114.827904,67.122253 
	C113.705070,66.607857 112.787262,66.352867 112.065788,65.827995 
	C109.056549,63.638844 107.722206,65.393936 107.241158,68.067612 
	C106.773170,70.668709 106.775002,73.362434 106.672928,76.019417 
	C106.511581,80.218712 104.785583,82.612808 100.187424,82.175674 
	C98.205360,81.987251 96.180977,82.246025 94.198418,82.060371 
	C89.001068,81.573647 84.730232,83.192635 81.304718,87.174591 
	C80.380745,88.248657 79.147659,89.056793 76.718498,91.127556 
	C76.152473,85.173431 75.130234,80.504936 75.386177,75.907585 
	C76.013023,64.647758 69.574585,56.520779 64.228699,47.694771 
	C59.738029,40.280731 53.880695,33.280613 54.012154,23.416531 
	C53.994457,23.014317 53.967316,23.049406 53.967316,23.049408 
	C57.633518,24.016407 61.337936,24.858753 64.960106,25.969366 
	C109.430885,39.604782 154.773605,49.579407 200.672440,56.707634 
	C238.798782,62.628777 277.151642,67.102562 315.423492,72.068329 
	C326.140411,73.458847 336.925873,74.321411 348.045349,75.640511 
z"/>
<path fill="#FED38C" opacity="1.000000" stroke="none" 
	d="
M344.414551,456.019653 
	C357.312500,456.939972 370.205750,457.935242 383.110992,458.738434 
	C387.406860,459.005798 391.733337,458.780640 397.259705,458.780640 
	C397.519989,452.809875 397.679291,446.767242 398.108826,440.743866 
	C398.239288,438.914154 399.115692,437.137604 399.650452,435.336731 
	C401.411804,436.055359 403.424438,436.445648 404.882019,437.561188 
	C407.884064,439.858856 410.411102,439.588379 412.688934,436.808289 
	C415.184845,433.762024 417.937744,432.991547 421.406158,435.136597 
	C426.542389,438.313202 431.622650,435.986938 436.843842,435.180908 
	C440.597870,434.601349 444.561829,435.449738 448.434967,435.540833 
	C449.993683,435.577515 451.844482,435.729675 453.005066,434.973663 
	C453.603027,434.584198 453.460907,432.023346 452.810120,430.959290 
	C451.276794,428.452362 449.372131,426.130981 447.373047,423.959778 
	C443.949890,420.241852 443.939758,418.615173 447.741760,415.520020 
	C452.176636,411.909760 451.802338,407.263977 447.374969,403.520142 
	C446.009796,402.365753 445.136322,399.593933 445.390991,397.749603 
	C446.235107,391.636719 445.592865,389.909027 440.209930,387.640594 
	C433.629425,384.867462 433.029205,383.558472 436.401367,377.292511 
	C439.271088,371.960175 439.894775,366.966431 435.679138,362.052856 
	C435.039581,361.307343 434.304840,360.379517 434.216400,359.476990 
	C433.993042,357.197876 433.154816,353.889221 434.294495,352.792603 
	C436.687469,350.489990 438.941223,352.383636 440.684387,354.909119 
	C442.631714,357.730377 444.994049,357.444397 447.398315,355.138702 
	C451.498352,351.206818 452.938293,346.353424 451.634552,341.032288 
	C451.175720,339.159485 449.135345,336.768097 447.358032,336.277924 
	C438.704468,333.891296 438.230133,333.585632 437.864075,324.274170 
	C438.582794,320.340881 438.890991,316.598206 440.164825,313.219604 
	C441.049408,310.873444 442.867584,308.017334 444.973877,307.194580 
	C448.178162,305.943054 451.509766,307.302704 453.413605,310.733826 
	C456.467316,316.237213 459.379303,321.832764 462.729309,327.151184 
	C463.978363,329.134125 466.025330,331.127747 468.158997,331.956146 
	C481.065857,336.967346 489.596375,346.703979 497.301727,357.599640 
	C498.998413,359.998779 501.763733,362.016022 504.474548,363.239838 
	C508.967407,365.268219 511.972382,367.773346 512.185547,373.124847 
	C512.351807,377.297699 514.515930,380.250946 518.971985,381.225677 
	C524.322144,382.395996 528.188110,385.761169 530.970154,390.331848 
	C534.149292,395.555023 538.004822,399.861877 543.714905,402.551025 
	C545.984314,403.619843 547.627197,406.020203 549.553467,407.816376 
	C551.438354,409.573914 553.320984,411.334015 555.554260,413.167908 
	C557.574951,416.150330 559.020447,419.223450 560.993042,421.909515 
	C562.410339,423.839539 564.531433,425.252747 566.299683,426.861053 
	C562.100647,432.302551 562.927063,432.677704 566.341370,437.549011 
	C569.590332,442.184326 573.043091,443.718536 578.255676,443.124969 
	C579.094482,443.029449 580.979980,444.545563 580.900513,445.107056 
	C579.768250,453.107666 586.554932,453.183899 591.324951,455.984680 
	C591.970276,453.132629 592.532532,450.647766 593.094788,448.162872 
	C593.479919,448.150452 593.864990,448.138000 594.250061,448.125580 
	C596.227417,452.093567 598.527954,455.939606 600.085449,460.066071 
	C601.465149,463.721405 603.236755,466.336609 607.122131,467.755371 
	C610.439819,468.966766 612.583374,471.339844 613.227295,475.448273 
	C614.110840,481.085541 616.143982,486.542603 617.371582,492.535828 
	C614.399902,493.944305 611.529419,494.537933 609.148438,495.954376 
	C607.187988,497.120728 605.680603,499.160736 604.207092,501.001404 
	C602.799133,502.760162 601.693848,504.761353 600.455566,506.655945 
	C598.210327,504.910400 595.031677,503.610931 593.935120,501.316376 
	C592.224304,497.736603 591.572327,493.522186 591.115967,489.503479 
	C590.521545,484.269379 587.269531,481.515198 582.087341,482.477570 
	C578.013489,483.234161 574.320007,479.374603 570.044006,481.372589 
	C569.740601,481.514343 568.900146,480.253418 568.193909,479.843719 
	C567.058228,479.184937 565.793579,478.751587 564.641113,478.117981 
	C561.556458,476.421997 558.150696,475.083984 555.516907,472.845581 
	C551.363708,469.315979 549.589172,469.510498 547.924561,474.822113 
	C547.387573,476.535492 547.571045,478.490540 546.949036,480.157410 
	C546.115784,482.390137 545.288391,484.959076 543.631042,486.485077 
	C539.338257,490.437683 538.063843,497.981567 541.396118,502.660095 
	C543.028137,504.951447 544.624939,507.274841 546.107422,509.664551 
	C552.395325,519.800659 549.640076,529.472473 539.003601,534.484741 
	C536.415833,535.704163 535.620850,537.099121 536.872620,539.973572 
	C537.734802,541.953430 538.479370,544.812744 537.669495,546.513855 
	C536.149536,549.706299 532.870667,548.942566 529.740356,548.520569 
	C526.007263,548.017273 521.999817,547.690002 518.391296,548.513550 
	C511.180847,550.159180 511.306244,550.477356 507.419464,543.825195 
	C505.400818,540.370239 501.422485,537.411621 498.500763,539.748413 
	C492.727478,544.365723 487.563324,543.875671 481.464081,541.414978 
	C477.879486,539.968750 474.706329,541.587036 472.078827,544.375244 
	C469.419556,547.197266 468.599670,550.250488 470.051453,553.916992 
	C470.844269,555.919373 471.440796,557.999451 471.957245,560.341125 
	C469.903534,565.547668 466.996399,563.166504 464.359802,561.582520 
	C458.072113,557.805054 456.884827,558.049744 453.221527,564.460449 
	C451.215149,567.971558 448.794434,570.486450 444.218079,570.071228 
	C442.788269,569.941528 441.239746,571.046204 439.755249,571.611267 
	C437.506073,572.467407 435.265350,573.345764 432.706848,573.965088 
	C426.863770,572.821716 421.223389,572.436890 419.658020,565.211121 
	C418.315857,559.015564 414.050262,556.253357 407.609436,556.327271 
	C405.732391,556.348877 402.793091,555.297974 402.147400,553.902649 
	C400.241089,549.783325 397.384766,549.492737 393.590454,550.062744 
	C391.503174,550.376282 389.219940,550.323914 387.178436,549.817871 
	C382.193024,548.582031 380.995087,545.077148 383.830780,540.867676 
	C384.192291,540.330933 384.819641,539.637329 384.705292,539.166687 
	C383.156311,532.791077 386.835022,525.351868 380.521179,519.869995 
	C378.726532,518.311768 377.882202,515.682129 376.522247,513.596008 
	C372.075775,506.775269 372.113739,506.003784 377.439148,499.989227 
	C380.895142,496.085999 381.819305,489.050537 378.301117,487.508606 
	C371.289001,484.435364 366.231720,475.080444 356.214233,480.386963 
	C353.245850,481.959351 350.811249,479.188690 351.401184,475.733765 
	C351.679901,474.101257 352.158936,472.502777 352.550995,470.889771 
	C353.227783,468.105438 352.441406,466.642609 349.340546,465.994690 
	C347.930359,465.700012 346.470398,463.813110 345.791962,462.306641 
	C344.929871,460.392456 344.838318,458.131256 344.414551,456.019653 
z"/>
<path fill="#FCEDD0" opacity="1.000000" stroke="none" 
	d="
M472.125793,560.044495 
	C471.440796,557.999451 470.844269,555.919373 470.051453,553.916992 
	C468.599670,550.250488 469.419556,547.197266 472.078827,544.375244 
	C474.706329,541.587036 477.879486,539.968750 481.464081,541.414978 
	C487.563324,543.875671 492.727478,544.365723 498.500763,539.748413 
	C501.422485,537.411621 505.400818,540.370239 507.419464,543.825195 
	C511.306244,550.477356 511.180847,550.159180 518.391296,548.513550 
	C521.999817,547.690002 526.007263,548.017273 529.740356,548.520569 
	C532.870667,548.942566 536.149536,549.706299 537.669495,546.513855 
	C538.479370,544.812744 537.734802,541.953430 536.872620,539.973572 
	C535.620850,537.099121 536.415833,535.704163 539.003601,534.484741 
	C549.640076,529.472473 552.395325,519.800659 546.107422,509.664551 
	C544.624939,507.274841 543.028137,504.951447 541.396118,502.660095 
	C538.063843,497.981567 539.338257,490.437683 543.631042,486.485077 
	C545.288391,484.959076 546.115784,482.390137 546.949036,480.157410 
	C547.571045,478.490540 547.387573,476.535492 547.924561,474.822113 
	C549.589172,469.510498 551.363708,469.315979 555.516907,472.845581 
	C558.150696,475.083984 561.556458,476.421997 564.641113,478.117981 
	C565.793579,478.751587 567.058228,479.184937 568.193909,479.843719 
	C568.900146,480.253418 569.740601,481.514343 570.044006,481.372589 
	C574.320007,479.374603 578.013489,483.234161 582.087341,482.477570 
	C587.269531,481.515198 590.521545,484.269379 591.115967,489.503479 
	C591.572327,493.522186 592.224304,497.736603 593.935120,501.316376 
	C595.031677,503.610931 598.210327,504.910400 600.455566,506.655945 
	C601.693848,504.761353 602.799133,502.760162 604.207092,501.001404 
	C605.680603,499.160736 607.187988,497.120728 609.148438,495.954376 
	C611.529419,494.537933 614.399902,493.944305 617.398926,492.887512 
	C618.819031,493.827423 619.898743,494.874603 620.978516,495.921814 
	C621.664612,494.657654 622.402771,493.418488 623.023682,492.123108 
	C623.811401,490.479614 624.503967,488.790497 624.898499,487.892792 
	C627.988708,490.601105 630.714661,492.885651 633.299561,495.319946 
	C634.065247,496.040955 634.744385,497.126038 634.933472,498.142792 
	C636.125061,504.551208 639.018616,506.678741 645.520508,505.683380 
	C646.309814,505.562531 647.077698,505.301300 647.890503,505.096344 
	C648.287292,505.649658 648.833374,506.063904 648.789673,506.401886 
	C647.989441,512.590942 650.799927,516.237244 656.451599,518.520874 
	C657.917114,519.113037 658.750244,521.541626 659.629578,523.252258 
	C661.108948,526.130188 662.755188,527.836914 666.260986,525.923645 
	C669.793274,523.995850 671.306335,525.032898 672.260986,529.265381 
	C672.872986,531.978577 675.770691,534.544678 678.235962,536.382019 
	C681.640564,538.919495 684.376831,541.456909 683.651367,546.537048 
	C679.182556,549.391602 676.095886,551.977417 679.897644,557.192383 
	C680.575806,558.122742 680.254089,560.560059 679.474426,561.633545 
	C676.809143,565.302979 676.651978,571.335388 670.191101,571.725159 
	C669.422791,571.771484 668.590942,574.079224 668.139038,575.453918 
	C666.552368,580.280518 661.969055,581.974243 658.881042,578.029358 
	C655.438049,573.631104 648.969177,571.660095 648.250366,565.065430 
	C648.217529,564.764343 647.496216,564.538330 647.133484,564.302124 
	C639.799011,568.994202 640.198730,578.542480 647.457275,584.862793 
	C649.262146,586.434387 650.574341,589.516968 650.568665,591.901306 
	C650.564697,593.580505 648.093445,596.475464 646.468872,596.667175 
	C643.376587,597.032043 640.097595,595.875305 636.904297,595.304138 
	C634.298462,594.838074 631.683838,594.390442 629.113220,593.768616 
	C627.608459,593.404724 625.960083,593.009521 624.768921,592.109131 
	C622.564026,590.442505 620.647278,588.394531 618.610535,586.505432 
	C619.745667,594.819458 614.599243,602.467407 617.745728,610.437561 
	C618.250305,611.715698 616.476440,615.237854 615.093750,615.687866 
	C608.478760,617.840637 609.477356,621.659424 611.574219,626.554443 
	C613.120117,630.163269 610.609314,633.645691 606.600220,633.911011 
	C604.320801,634.061890 601.980286,633.701111 599.701477,633.349304 
	C596.646484,632.877563 583.546936,638.831360 582.430420,641.494690 
	C582.002075,642.516479 582.072754,643.764832 581.999573,644.915283 
	C581.632935,650.675781 582.517639,656.116333 585.523621,661.211792 
	C586.300659,662.528992 586.571960,665.725159 586.037659,665.993835 
	C579.777344,669.141418 580.973083,674.678284 581.133240,679.923584 
	C565.818726,679.955017 550.504089,680.025452 535.189880,679.972778 
	C533.069641,679.965515 530.951599,679.349609 528.257812,678.676575 
	C524.658752,675.215881 526.956665,672.573303 528.463928,669.878723 
	C531.513489,664.426758 530.637878,662.615417 524.794617,661.944397 
	C523.612000,661.808655 521.661377,661.144592 521.504822,660.415100 
	C520.070618,653.731873 517.616882,646.893311 518.048523,640.268616 
	C518.755859,629.411072 514.462036,622.481079 503.737640,620.871887 
	C501.804749,620.581787 499.705383,620.031738 498.140900,618.943420 
	C494.962585,616.732483 491.972961,615.841675 487.957764,616.751160 
	C485.470245,617.314575 482.485992,616.043335 479.826996,615.251953 
	C479.117157,615.040771 478.151489,613.317932 478.388184,612.714722 
	C479.330170,610.313904 480.298492,607.698242 482.020782,605.889160 
	C483.920166,603.894104 487.165100,600.962891 488.932831,601.480835 
	C493.965576,602.955322 495.496124,600.204895 496.514404,596.758118 
	C498.561859,589.827820 500.432220,582.823792 501.903320,575.751953 
	C502.889954,571.008850 500.790009,568.827820 496.023712,570.207581 
	C490.137939,571.911438 485.557831,569.563293 481.015472,566.908203 
	C477.810089,565.034668 475.072327,562.360962 472.125793,560.044495 
z"/>
<path fill="#033673" opacity="1.000000" stroke="none" 
	d="
M187.088547,162.471115 
	C219.518295,167.146835 251.922913,172.251663 284.328186,177.352173 
	C288.274658,177.973343 292.208344,178.740845 296.178436,179.126907 
	C299.428680,179.442978 300.701813,180.316101 300.242798,184.096863 
	C298.797943,195.997894 297.955109,207.970749 296.733521,219.900879 
	C296.338654,223.757401 296.957733,226.904449 299.720276,229.970840 
	C301.478577,231.922562 302.308807,234.916580 302.990814,237.587326 
	C304.274170,242.613098 307.031677,246.062637 311.690918,248.470657 
	C315.988037,250.691513 320.066467,253.425400 323.954132,256.319061 
	C326.848145,258.473114 325.313110,265.381775 320.979553,266.671967 
	C315.470825,268.311981 314.573486,272.167267 313.678680,276.608765 
	C312.984497,280.054474 311.284302,281.905060 307.659912,283.519012 
	C305.345184,284.549774 304.929077,289.844116 303.261566,294.295013 
	C306.894897,293.419891 308.698151,292.985565 310.319214,292.595093 
	C310.726105,293.173859 310.935089,293.354065 310.901672,293.440216 
	C306.919373,303.699097 315.654724,304.391602 321.378326,306.887604 
	C324.803955,308.381500 327.307281,309.914612 328.602295,313.700470 
	C329.237427,315.557220 331.546173,316.973450 333.328247,318.272552 
	C335.571228,319.907654 337.878021,321.829895 340.459106,322.557281 
	C348.728973,324.887909 346.713379,333.645447 350.815796,338.532745 
	C351.275879,339.080841 350.636200,341.599701 349.930725,341.914551 
	C343.676422,344.705688 337.925537,350.345490 330.144379,345.575439 
	C328.395752,344.503448 326.031403,344.150024 323.915802,344.016785 
	C317.912476,343.638641 315.372375,346.637085 316.156097,352.571564 
	C316.936798,358.483276 317.354919,364.451263 318.373993,370.317810 
	C318.667053,372.004883 320.287018,373.644379 321.657806,374.919525 
	C323.848083,376.956818 323.590057,378.431335 322.528076,381.308411 
	C320.270172,387.425720 315.724518,390.659058 310.916748,394.368164 
	C304.497131,399.320770 304.900543,404.601257 310.811798,413.752472 
	C312.498138,416.363098 313.754333,419.249939 315.412506,421.881104 
	C316.177338,423.094696 317.253082,424.517578 318.499878,424.953766 
	C324.667908,427.111664 325.722382,432.195618 326.100464,438.405029 
	C321.929932,442.916962 318.762909,446.752594 324.188049,451.909821 
	C324.669678,452.367676 324.137695,453.974396 323.956482,455.026855 
	C323.708679,456.465881 322.744781,458.082977 323.138275,459.277832 
	C324.680054,463.959839 321.241852,465.433685 318.385834,467.230072 
	C314.988403,469.367035 314.331299,465.847198 312.726776,464.288300 
	C312.274902,463.849304 311.685425,463.551941 310.620117,462.818604 
	C306.803101,469.514648 301.686432,467.977844 296.391388,465.014801 
	C296.128510,464.867676 295.741180,464.942902 295.411804,464.914551 
	C294.524506,461.264191 293.436584,457.991852 288.723419,457.570496 
	C287.736572,457.482269 286.171967,455.228790 286.188110,453.990234 
	C286.274139,447.395508 282.298279,443.118347 278.326508,438.685364 
	C276.715881,436.887726 275.545898,434.695343 274.079681,431.909485 
	C273.983917,428.151245 273.983917,425.166046 273.983917,422.913696 
	C277.661133,424.447266 280.842896,425.774231 284.452515,427.200317 
	C287.465881,427.311249 290.051422,427.323059 292.850250,427.599854 
	C296.532013,430.784088 300.000427,433.703369 303.468872,436.622620 
	C303.997192,436.154572 304.525482,435.686523 305.053802,435.218445 
	C302.690002,432.179382 300.326172,429.140289 297.628479,425.990540 
	C295.867157,425.230286 294.439728,424.580658 292.825439,423.687805 
	C292.049805,423.455872 291.461029,423.467194 290.516327,423.377380 
	C289.424042,423.274445 288.687683,423.272675 287.718262,423.081299 
	C286.331329,422.965302 285.177460,423.038849 283.697083,423.015869 
	C282.918945,422.927094 282.467316,422.934814 281.778778,422.694153 
	C280.324982,420.969086 279.108093,419.492371 277.891235,418.015656 
	C277.914703,417.257812 277.938141,416.499969 278.117432,415.103302 
	C278.906799,413.347687 279.540344,412.230896 280.173889,411.114136 
	C281.532623,410.114563 282.891357,409.114990 284.546509,407.588654 
	C284.662140,405.615234 284.481354,404.168579 284.300537,402.721924 
	C284.300537,402.721924 284.081665,402.947021 284.070557,402.535492 
	C282.594849,402.339905 281.130219,402.555817 279.665588,402.771729 
	C277.567169,404.675537 275.468781,406.579376 272.886932,408.821411 
	C271.507233,410.028351 270.611023,410.897125 269.456238,411.876160 
	C269.115326,412.308136 269.032928,412.629883 268.977966,412.970184 
	C269.005402,412.988708 268.998077,412.922943 268.679626,412.859009 
	C268.149048,412.838715 267.936951,412.882324 267.416168,412.962708 
	C266.391876,413.969330 265.676300,414.939087 264.960693,415.908875 
	C264.960693,415.908875 265.004486,415.963531 264.623352,416.028320 
	C264.112396,417.716248 263.982574,419.339417 263.852783,420.962585 
	C263.502014,423.899567 262.920166,426.555115 258.513428,424.612915 
	C257.481506,423.705170 256.839081,423.212830 256.196625,422.720490 
	C256.125549,422.429688 255.985077,422.177551 255.545258,421.468262 
	C250.937500,413.565918 246.559662,406.159393 242.181824,398.752899 
	C242.144745,398.504852 242.018555,398.316467 241.558578,397.821228 
	C240.544266,395.633942 239.774628,393.813171 239.005005,391.992401 
	C238.838455,387.225708 240.912292,384.028320 245.720703,382.992371 
	C245.442841,382.360901 245.376968,381.896912 245.195251,381.845947 
	C242.917114,381.207062 239.193695,381.269806 238.586685,379.918915 
	C236.337219,374.912750 233.202393,369.844482 234.794403,363.876556 
	C235.646835,360.681152 235.744995,356.516235 237.839737,354.589020 
	C241.584854,351.143433 244.069778,346.938690 247.274612,343.230133 
	C248.654190,341.633759 251.792023,341.556763 254.334595,340.722748 
	C253.076691,335.412872 249.790649,337.224213 246.169632,338.815399 
	C245.442230,332.715973 245.232697,327.438354 249.595535,322.766174 
	C250.879211,321.391479 251.678253,319.109467 251.791992,317.189545 
	C252.047272,312.880493 251.309448,308.491272 251.777191,304.222473 
	C252.198242,300.379791 253.675858,296.651001 254.708847,292.877838 
	C255.489853,290.025085 256.637726,287.220215 256.974365,284.318817 
	C257.164368,282.681213 256.387573,279.618988 255.460159,279.368469 
	C246.738800,277.012665 245.964096,264.890167 236.206711,263.928650 
	C235.096130,263.819183 233.393036,262.527954 233.193161,261.536957 
	C231.877289,255.012283 225.598846,252.727356 221.973969,248.211929 
	C220.320679,246.152451 217.101410,244.802902 214.368668,244.262192 
	C206.882523,242.780975 206.931870,242.914917 205.980148,235.315277 
	C205.293121,229.829178 204.274200,224.358994 202.941086,218.996628 
	C202.588120,217.576752 200.648148,216.399185 199.213577,215.446701 
	C197.979004,214.627014 196.426300,214.286499 194.630615,213.584061 
	C201.094650,208.311462 201.282181,206.622391 196.772263,199.868073 
	C196.404663,199.317520 195.922379,198.774994 195.769180,198.160019 
	C192.842575,186.412491 189.957367,174.654633 187.088547,162.471115 
z"/>
<path fill="#BCDDE5" opacity="1.000000" stroke="none" 
	d="
M581.588013,679.945862 
	C580.973083,674.678284 579.777344,669.141418 586.037659,665.993835 
	C586.571960,665.725159 586.300659,662.528992 585.523621,661.211792 
	C582.517639,656.116333 581.632935,650.675781 581.999573,644.915283 
	C582.072754,643.764832 582.002075,642.516479 582.430420,641.494690 
	C583.546936,638.831360 596.646484,632.877563 599.701477,633.349304 
	C601.980286,633.701111 604.320801,634.061890 606.600220,633.911011 
	C610.609314,633.645691 613.120117,630.163269 611.574219,626.554443 
	C609.477356,621.659424 608.478760,617.840637 615.093750,615.687866 
	C616.476440,615.237854 618.250305,611.715698 617.745728,610.437561 
	C614.599243,602.467407 619.745667,594.819458 618.610535,586.505432 
	C620.647278,588.394531 622.564026,590.442505 624.768921,592.109131 
	C625.960083,593.009521 627.608459,593.404724 629.113220,593.768616 
	C631.683838,594.390442 634.298462,594.838074 636.904297,595.304138 
	C640.097595,595.875305 643.376587,597.032043 646.468872,596.667175 
	C648.093445,596.475464 650.564697,593.580505 650.568665,591.901306 
	C650.574341,589.516968 649.262146,586.434387 647.457275,584.862793 
	C640.198730,578.542480 639.799011,568.994202 647.133484,564.302124 
	C647.496216,564.538330 648.217529,564.764343 648.250366,565.065430 
	C648.969177,571.660095 655.438049,573.631104 658.881042,578.029358 
	C661.969055,581.974243 666.552368,580.280518 668.139038,575.453918 
	C668.590942,574.079224 669.422791,571.771484 670.191101,571.725159 
	C676.651978,571.335388 676.809143,565.302979 679.474426,561.633545 
	C680.254089,560.560059 680.575806,558.122742 679.897644,557.192383 
	C676.095886,551.977417 679.182556,549.391602 683.646606,546.930969 
	C690.472778,550.495483 694.536499,557.437927 702.350037,559.553345 
	C704.658691,560.178406 707.472839,564.298584 707.518494,566.862366 
	C707.631775,573.223633 711.848389,575.446838 716.095154,578.226196 
	C717.530945,579.165894 718.993042,580.685120 719.535522,582.253479 
	C721.140564,586.894165 723.863525,588.613647 728.672791,587.130798 
	C730.020874,586.715088 731.605774,587.067444 732.748474,587.067444 
	C740.929138,602.895813 742.880005,620.020203 746.058472,636.832703 
	C746.275146,637.978821 747.343994,638.968750 748.035461,640.018799 
	C748.643921,640.942871 749.910645,641.931091 749.804810,642.751343 
	C748.703308,651.287415 755.821655,652.872437 760.790588,656.583313 
	C763.678711,658.740295 765.635559,662.209106 767.663635,665.314819 
	C767.807495,665.535034 765.207336,668.478088 763.667358,668.707581 
	C756.634094,669.755615 749.527405,670.325012 742.440491,670.996094 
	C728.432312,672.322266 714.429504,673.721130 700.405945,674.862427 
	C689.503174,675.749817 678.580811,676.499573 667.652222,676.943359 
	C646.746826,677.792297 625.830444,678.368408 604.919373,679.081848 
	C597.292725,679.342041 589.668274,679.670715 581.588013,679.945862 
z"/>
<path fill="#058598" opacity="1.000000" stroke="none" 
	d="
M295.253601,465.296234 
	C295.741180,464.942902 296.128510,464.867676 296.391388,465.014801 
	C301.686432,467.977844 306.803101,469.514648 310.620117,462.818604 
	C311.685425,463.551941 312.274902,463.849304 312.726776,464.288300 
	C314.331299,465.847198 314.988403,469.367035 318.385834,467.230072 
	C321.241852,465.433685 324.680054,463.959839 323.138275,459.277832 
	C322.744781,458.082977 323.708679,456.465881 323.956482,455.026855 
	C324.137695,453.974396 324.669678,452.367676 324.188049,451.909821 
	C318.762909,446.752594 321.929932,442.916962 326.101318,438.792908 
	C327.407715,438.323608 328.546051,438.238983 329.670837,438.066284 
	C333.122131,437.536469 334.760986,439.023895 334.246246,442.450317 
	C333.619110,446.624969 333.786865,449.686371 339.275177,450.370605 
	C341.021179,450.588226 342.394623,453.793945 344.176544,455.826019 
	C344.838318,458.131256 344.929871,460.392456 345.791962,462.306641 
	C346.470398,463.813110 347.930359,465.700012 349.340546,465.994690 
	C352.441406,466.642609 353.227783,468.105438 352.550995,470.889771 
	C352.158936,472.502777 351.679901,474.101257 351.401184,475.733765 
	C350.811249,479.188690 353.245850,481.959351 356.214233,480.386963 
	C366.231720,475.080444 371.289001,484.435364 378.301117,487.508606 
	C381.819305,489.050537 380.895142,496.085999 377.439148,499.989227 
	C372.113739,506.003784 372.075775,506.775269 376.522247,513.596008 
	C377.882202,515.682129 378.726532,518.311768 380.521179,519.869995 
	C386.835022,525.351868 383.156311,532.791077 384.705292,539.166687 
	C384.819641,539.637329 384.192291,540.330933 383.830780,540.867676 
	C380.995087,545.077148 382.193024,548.582031 387.178436,549.817871 
	C389.219940,550.323914 391.503174,550.376282 393.590454,550.062744 
	C397.384766,549.492737 400.241089,549.783325 402.147400,553.902649 
	C402.793091,555.297974 405.732391,556.348877 407.609436,556.327271 
	C414.050262,556.253357 418.315857,559.015564 419.658020,565.211121 
	C421.223389,572.436890 426.863770,572.821716 432.557831,574.254272 
	C432.231659,575.225891 431.774567,575.707031 431.243500,576.083862 
	C426.717773,579.295044 426.769043,580.247803 431.018494,583.967896 
	C431.944000,584.778076 432.556274,586.491516 432.515137,587.763123 
	C432.362762,592.468994 430.373291,595.688843 424.236450,594.998413 
	C425.766357,600.243591 425.681030,604.319702 418.989563,603.836365 
	C418.529846,603.803162 417.189056,606.184631 417.506226,606.805908 
	C419.256683,610.234985 418.676178,613.139893 416.525879,616.115173 
	C416.056915,616.764038 416.286346,618.047119 416.443390,618.996948 
	C417.190491,623.514404 418.023651,628.017639 418.826172,632.525940 
	C416.546204,633.520874 414.337891,634.769592 411.966095,635.439392 
	C409.595459,636.108948 407.906128,636.311523 406.379211,632.793030 
	C404.905792,629.397827 400.688324,627.152893 397.565826,624.534363 
	C396.345612,623.511108 394.824219,622.847046 392.523102,621.471069 
	C394.658264,620.060486 395.940704,618.813965 397.471771,618.279541 
	C401.442749,616.893433 402.793030,614.278381 401.243195,610.524353 
	C399.743347,606.891235 401.725067,606.018372 404.538086,604.946411 
	C407.518402,603.810730 411.364441,603.594177 413.025818,598.661560 
	C408.408112,599.451965 404.504547,599.782532 400.812561,600.846924 
	C397.115875,601.912537 393.630463,603.711243 389.475464,605.426819 
	C388.631409,600.346985 389.423340,595.691406 392.235779,591.358704 
	C396.159180,585.314575 396.651031,578.831238 395.214264,571.268066 
	C394.119415,572.118835 393.415161,572.380310 393.254303,572.834290 
	C391.175629,578.700439 389.306763,584.643738 387.119934,590.468018 
	C384.394012,597.728271 373.112061,599.923828 366.843872,595.213318 
	C364.184052,593.214539 360.175903,592.941223 356.734375,592.065063 
	C348.532318,589.976807 347.913910,588.960938 350.507263,581.171021 
	C352.155273,576.220764 350.826538,573.674011 345.808807,572.099304 
	C343.913818,571.504700 341.756348,571.245728 340.208557,570.144836 
	C336.444366,567.467407 333.221344,567.262756 329.346710,570.175476 
	C327.867462,571.287537 324.767365,571.411499 322.939850,570.669922 
	C317.782532,568.577209 312.901978,565.802490 306.973450,562.825012 
	C314.906433,562.253967 322.237183,561.726257 329.567932,561.198608 
	C329.609589,560.400940 329.651245,559.603271 329.692902,558.805603 
	C327.471649,558.320923 325.271912,557.662903 323.025116,557.383850 
	C315.986725,556.509583 308.914612,555.886414 301.902069,554.851074 
	C301.048859,554.725098 299.782623,552.571655 299.941040,551.548889 
	C300.178986,550.012573 301.180786,547.949768 302.443024,547.357117 
	C304.749847,546.273987 307.484985,546.103088 310.041473,545.551636 
	C310.208923,545.056274 310.376373,544.560913 310.543823,544.065491 
	C307.853210,542.893127 305.162628,541.720825 302.696564,540.646301 
	C306.362823,530.059998 317.277008,531.845581 325.400116,528.687378 
	C325.246674,527.988525 325.093231,527.289673 324.939789,526.590820 
	C320.696838,526.844055 316.449860,527.046997 312.214081,527.388977 
	C311.253204,527.466553 310.334473,528.035767 309.390930,528.363159 
	C306.177155,529.478149 302.003510,532.304932 299.961517,528.527039 
	C298.354736,525.554382 298.263550,520.300415 299.878021,517.370667 
	C302.734467,512.186951 307.643463,508.180603 311.232971,503.340057 
	C314.224915,499.305328 317.939819,497.082947 322.538086,495.225189 
	C324.061920,494.609497 324.755096,489.234100 324.056244,486.485321 
	C323.121490,482.808807 320.268646,485.373260 317.999817,486.026459 
	C312.615540,487.576538 307.177734,489.037415 301.669952,490.021790 
	C298.818726,490.531372 296.493439,489.347626 296.496490,485.602051 
	C296.497467,484.399780 295.435486,482.449707 294.498077,482.200012 
	C293.526459,481.941223 292.016754,483.199402 290.923553,484.031952 
	C289.645599,485.005127 288.563568,486.235443 286.723999,486.865753 
	C291.975128,480.624146 293.914673,473.300537 295.253601,465.296234 
z"/>
<path fill="#CACDE1" opacity="1.000000" stroke="none" 
	d="
M419.012238,632.887878 
	C418.023651,628.017639 417.190491,623.514404 416.443390,618.996948 
	C416.286346,618.047119 416.056915,616.764038 416.525879,616.115173 
	C418.676178,613.139893 419.256683,610.234985 417.506226,606.805908 
	C417.189056,606.184631 418.529846,603.803162 418.989563,603.836365 
	C425.681030,604.319702 425.766357,600.243591 424.236450,594.998413 
	C430.373291,595.688843 432.362762,592.468994 432.515137,587.763123 
	C432.556274,586.491516 431.944000,584.778076 431.018494,583.967896 
	C426.769043,580.247803 426.717773,579.295044 431.243500,576.083862 
	C431.774567,575.707031 432.231659,575.225891 432.872070,574.503906 
	C435.265350,573.345764 437.506073,572.467407 439.755249,571.611267 
	C441.239746,571.046204 442.788269,569.941528 444.218079,570.071228 
	C448.794434,570.486450 451.215149,567.971558 453.221527,564.460449 
	C456.884827,558.049744 458.072113,557.805054 464.359802,561.582520 
	C466.996399,563.166504 469.903534,565.547668 471.957245,560.341125 
	C475.072327,562.360962 477.810089,565.034668 481.015472,566.908203 
	C485.557831,569.563293 490.137939,571.911438 496.023712,570.207581 
	C500.790009,568.827820 502.889954,571.008850 501.903320,575.751953 
	C500.432220,582.823792 498.561859,589.827820 496.514404,596.758118 
	C495.496124,600.204895 493.965576,602.955322 488.932831,601.480835 
	C487.165100,600.962891 483.920166,603.894104 482.020782,605.889160 
	C480.298492,607.698242 479.330170,610.313904 478.388184,612.714722 
	C478.151489,613.317932 479.117157,615.040771 479.826996,615.251953 
	C482.485992,616.043335 485.470245,617.314575 487.957764,616.751160 
	C491.972961,615.841675 494.962585,616.732483 498.140900,618.943420 
	C499.705383,620.031738 501.804749,620.581787 503.737640,620.871887 
	C514.462036,622.481079 518.755859,629.411072 518.048523,640.268616 
	C517.616882,646.893311 520.070618,653.731873 521.504822,660.415100 
	C521.661377,661.144592 523.612000,661.808655 524.794617,661.944397 
	C530.637878,662.615417 531.513489,664.426758 528.463928,669.878723 
	C526.956665,672.573303 524.658752,675.215881 527.834534,678.650757 
	C504.122467,679.309021 480.257812,679.595947 456.396545,680.059265 
	C452.593964,680.133118 450.526703,679.598816 450.879395,675.006897 
	C451.253967,670.130005 451.146088,665.136292 450.506256,660.291565 
	C450.127960,657.427002 448.311371,654.752258 447.163452,652.043823 
	C442.167297,654.575073 436.645142,656.255981 430.569092,654.698181 
	C430.408295,654.656982 430.256744,654.570190 430.094635,654.544983 
	C427.168121,654.091064 422.036011,654.262573 421.705139,653.084412 
	C420.450745,648.618042 420.838623,643.707336 420.427917,638.978821 
	C420.260223,637.048157 419.622284,635.158264 419.012238,632.887878 
z"/>
<path fill="#06869A" opacity="1.000000" stroke="none" 
	d="
M389.366455,673.314758 
	C385.882141,673.639832 382.401733,674.021973 378.911499,674.260498 
	C377.601959,674.350037 376.127258,673.689514 374.971863,674.084595 
	C369.469910,675.965881 364.807159,674.554871 359.825226,671.837280 
	C353.328094,668.293091 353.017731,668.503845 355.380646,661.821350 
	C355.638275,661.092773 355.690552,660.291626 355.833588,659.547302 
	C353.262146,659.697510 350.952911,659.832397 348.643677,659.967285 
	C349.307343,658.245483 349.971008,656.523682 350.634674,654.801880 
	C351.351318,654.280518 352.067963,653.759155 352.784637,653.237793 
	C351.370728,652.670532 349.980347,651.695557 348.538513,651.612427 
	C344.186310,651.361450 339.883209,651.305786 337.666870,646.565796 
	C336.554413,647.093384 335.479065,647.731445 334.320190,648.120850 
	C332.851990,648.614319 331.315887,648.905701 329.809052,649.284241 
	C329.764862,647.418701 328.932739,644.908142 329.829407,643.812744 
	C332.189117,640.929810 335.300568,638.662109 338.846313,635.493774 
	C338.667328,634.585938 338.228333,632.359497 337.682831,629.592896 
	C334.942596,630.668335 332.463043,631.641418 328.501068,633.196350 
	C331.245392,625.945068 329.989319,620.915283 323.314087,617.771301 
	C322.540131,618.878723 321.767578,620.079895 320.899841,621.208008 
	C318.258728,624.641479 312.332794,624.845581 310.205078,621.175903 
	C309.551819,620.049194 310.608124,617.227478 311.732117,615.904480 
	C315.277496,611.731445 315.286224,610.872070 310.119293,608.021606 
	C309.092621,610.194031 308.077332,612.342468 307.062012,614.490845 
	C306.806580,614.460144 306.551117,614.429504 306.295685,614.398804 
	C306.295685,612.436646 306.295685,610.474487 306.295685,608.248718 
	C303.475342,607.632874 299.176636,611.111206 298.971863,604.205505 
	C296.616852,606.301147 295.365936,607.855164 293.745697,608.704895 
	C292.620667,609.295044 290.690887,609.405823 289.686829,608.797058 
	C289.027924,608.397522 288.832092,606.017700 289.377594,605.072144 
	C291.141876,602.014099 291.386688,599.325500 289.387482,596.232483 
	C287.179779,592.816895 289.066559,591.619507 292.470490,591.130798 
	C295.524445,590.692383 298.498718,589.698914 301.508148,588.950317 
	C301.415375,588.166016 301.322601,587.381714 301.229828,586.597473 
	C296.251251,586.332458 291.275055,585.991028 286.293060,585.836243 
	C283.969910,585.764038 282.620453,585.536255 281.689880,582.683777 
	C281.104858,580.890442 277.859924,579.517029 275.547882,578.823730 
	C269.905396,577.131836 269.647552,577.154907 268.672913,572.107239 
	C277.215729,569.705627 285.160065,564.510437 294.876434,568.340942 
	C298.646271,569.827148 301.913300,571.212219 303.541962,575.085144 
	C304.794586,578.063904 306.913666,579.039001 310.192474,579.207764 
	C312.491791,579.326111 314.705017,581.118469 316.956573,582.163391 
	C322.428406,584.702820 327.843658,587.375061 333.390564,589.738220 
	C337.533112,591.503174 341.737091,593.402161 346.107025,594.292114 
	C353.262573,595.749268 358.519958,603.685791 367.258057,600.013062 
	C370.291962,598.737854 373.099731,600.597351 374.050354,604.983032 
	C374.869049,608.713501 377.071136,612.855530 375.879456,614.431885 
	C374.014374,616.898926 369.854218,617.630859 366.666809,619.098938 
	C370.880188,622.934448 372.727417,622.710144 376.987091,617.847046 
	C377.410889,617.877380 377.834686,617.907776 378.594208,618.296692 
	C379.281586,619.104614 379.633209,619.553955 379.984833,620.003357 
	C380.034943,620.436218 380.085083,620.869019 380.161041,621.945801 
	C380.607300,623.603638 381.027740,624.617493 381.448181,625.631409 
	C382.383636,627.172729 383.000824,629.099304 384.313721,630.183777 
	C388.419006,633.574890 389.615967,637.910034 389.873627,642.985413 
	C389.965302,644.792053 391.558258,646.619080 392.731293,648.245361 
	C393.773285,649.689880 395.940979,650.693481 396.290009,652.198364 
	C397.407898,657.017639 400.392120,656.482666 403.919830,655.727173 
	C405.619476,655.363037 407.934387,654.922729 409.142090,655.740601 
	C413.481873,658.679321 417.959473,661.688416 421.472382,665.509766 
	C426.643066,671.134521 427.329041,674.210693 427.304352,681.221436 
	C430.656738,682.353149 435.696289,682.914490 431.036377,688.399231 
	C430.786804,688.692993 431.167633,689.637268 431.408661,690.214600 
	C433.108124,694.285645 434.847992,698.339966 436.714539,702.727722 
	C437.260712,701.648315 437.863342,700.457275 438.453064,699.291809 
	C442.970673,705.559875 442.190338,706.171875 435.227600,708.821045 
	C425.158661,712.652100 417.839600,708.156494 409.982452,703.182556 
	C406.022156,700.675598 401.152588,699.620300 396.728577,697.823914 
	C394.548004,696.938477 392.445679,695.860352 390.210510,694.824219 
	C391.864136,692.252808 393.014923,690.463318 394.165710,688.673828 
	C393.802612,688.280640 393.439514,687.887512 393.076447,687.494324 
	C391.728271,688.318787 390.294617,689.032166 389.049774,689.990784 
	C386.449402,691.993103 383.691803,693.131470 381.019501,690.542969 
	C378.303253,687.911926 378.734619,684.076477 381.824982,681.447021 
	C384.483948,679.184753 387.300323,677.107544 390.436829,674.452820 
	C390.780151,673.409851 390.733673,672.862488 390.687225,672.315186 
	C390.246979,672.648376 389.806732,672.981567 389.366455,673.314758 
z"/>
<path fill="#093B77" opacity="1.000000" stroke="none" 
	d="
M179.610168,394.946075 
	C178.930984,397.812347 178.197159,400.325928 178.014435,402.878967 
	C177.442093,410.875916 175.724808,418.656647 168.590530,423.073364 
	C166.209229,424.547577 161.721466,422.376740 158.186020,422.286011 
	C152.891586,422.150238 152.382782,419.091827 153.140137,414.345093 
	C155.413589,414.807678 157.511169,415.234497 160.756912,415.894958 
	C157.498398,411.114319 156.521515,406.069092 150.241592,405.396271 
	C148.593582,405.219696 146.383789,402.426605 145.930145,400.485046 
	C144.727386,395.337402 143.444321,389.923096 143.877335,384.756012 
	C144.344971,379.175476 146.132767,373.459229 148.646149,368.455963 
	C149.343201,367.068390 154.793289,367.446075 157.805237,368.136688 
	C159.089539,368.431152 159.819641,371.564087 160.585648,373.492920 
	C160.897964,374.279327 160.637253,375.293335 160.637253,377.259460 
	C164.956772,372.323456 168.361526,374.299286 172.334076,376.717865 
	C177.433807,379.822693 183.190353,380.661438 189.468964,377.789276 
	C189.107071,385.607239 185.134109,390.495422 179.610168,394.946075 
z"/>
<path fill="#13437D" opacity="1.000000" stroke="none" 
	d="
M163.419006,433.600830 
	C160.522858,431.902252 157.860748,430.506317 155.198654,429.110382 
	C155.316315,428.581177 155.433975,428.051971 155.551636,427.522766 
	C156.820999,427.522766 158.151962,427.269928 159.350204,427.561859 
	C171.455032,430.510742 173.260651,429.998016 181.111511,420.456512 
	C181.763214,426.857880 182.653030,432.581757 182.693680,438.311646 
	C182.702805,439.597443 179.600861,440.770142 178.194000,442.245544 
	C177.141266,443.349670 175.595734,445.072052 175.849014,446.147034 
	C177.014191,451.092590 178.016983,456.306732 180.443802,460.663849 
	C183.209534,465.629456 187.110184,470.090546 191.092773,474.215546 
	C195.229446,478.500092 198.273178,482.959137 197.672409,489.129883 
	C197.554672,490.339203 196.786987,491.485260 195.848160,493.843201 
	C194.379089,491.475464 193.638565,489.937531 192.584534,488.657867 
	C190.647385,486.306183 188.421021,484.190491 186.515213,481.815918 
	C185.092926,480.043732 183.872101,478.082397 182.759094,476.094696 
	C179.611328,470.473145 176.370209,464.890442 173.532883,459.112183 
	C170.587952,453.114777 167.514023,447.397858 161.741791,443.500549 
	C159.872101,442.238190 159.852188,440.390198 161.991760,438.554810 
	C163.076965,437.623871 163.132187,435.492249 163.419006,433.600830 
z"/>
<path fill="#10417B" opacity="1.000000" stroke="none" 
	d="
M265.236603,457.920258 
	C264.836884,457.514343 264.437164,457.108459 264.026062,456.059387 
	C263.088654,453.342865 267.942841,451.381317 264.133942,449.252258 
	C263.894836,449.090302 263.655762,448.928375 263.239899,448.029053 
	C263.725037,445.569275 264.386932,443.846924 265.048828,442.124573 
	C265.106476,441.924194 265.164093,441.723846 265.753479,441.147217 
	C267.898926,438.896240 265.655975,433.881439 270.968750,435.018616 
	C270.968750,435.018616 270.996460,434.996521 271.014648,435.313049 
	C271.600739,436.097565 272.168640,436.565521 272.736542,437.033508 
	C275.159363,440.399048 277.582153,443.764557 280.010254,447.851410 
	C280.504059,449.733124 280.992523,450.893555 281.480957,452.053955 
	C281.560181,453.096771 281.639404,454.139618 281.312683,455.663330 
	C280.802460,457.722900 280.698212,459.301605 280.593964,460.880280 
	C280.558197,461.358398 280.522461,461.836517 280.010193,462.822540 
	C279.440613,464.739075 279.347595,466.147675 279.254547,467.556305 
	C279.325195,468.033661 279.395813,468.511047 279.267395,469.611755 
	C279.417297,471.167969 279.766174,472.100830 280.115082,473.033722 
	C279.696014,474.420532 279.276917,475.807373 278.224762,476.832275 
	C276.521729,476.294739 275.451782,476.119141 274.381805,475.943512 
	C273.638123,475.218109 272.894440,474.492706 272.065674,473.121216 
	C272.696655,471.091339 273.412689,469.707611 274.128723,468.323883 
	C274.128723,468.323883 274.065063,468.147614 274.488739,468.026062 
	C274.719940,466.231018 274.527496,464.557495 274.335052,462.883972 
	C274.335052,462.883972 274.119568,462.720093 273.990723,462.257477 
	C271.890747,461.537628 269.919678,461.280396 267.948578,461.023193 
	C267.601440,460.971283 267.331970,460.798370 267.053284,459.959839 
	C266.389801,458.916901 265.813202,458.418579 265.236603,457.920258 
z"/>
<path fill="#12437C" opacity="1.000000" stroke="none" 
	d="
M227.584488,420.516663 
	C223.108444,417.406250 221.605270,413.591431 223.489639,407.874176 
	C225.199554,408.279510 227.438049,408.163452 228.701492,409.216858 
	C235.790161,415.127228 240.815430,422.643311 243.987167,431.256927 
	C244.563736,432.822754 243.250671,435.084381 242.809937,437.024811 
	C241.518250,436.015015 240.030106,435.176971 238.970261,433.964539 
	C235.185013,429.634338 231.545151,425.177032 227.584488,420.516663 
z"/>
<path fill="#16467E" opacity="1.000000" stroke="none" 
	d="
M247.989227,432.001801 
	C245.935791,427.227173 243.946640,422.423553 241.812988,417.685059 
	C239.003174,411.444946 236.079758,405.255981 233.205185,399.045044 
	C233.846939,398.470245 234.488693,397.895416 235.130447,397.320618 
	C236.821289,398.455597 238.512131,399.590576 240.581024,401.294312 
	C242.434387,404.813721 243.362579,408.258972 245.494049,410.616272 
	C250.605667,416.269592 252.935837,422.634705 252.482880,430.139679 
	C252.127151,430.995453 251.771423,431.851227 250.910156,433.043091 
	C249.599487,432.920074 248.794357,432.460938 247.989227,432.001801 
z"/>
<path fill="#2997A8" opacity="1.000000" stroke="none" 
	d="
M314.467468,494.391205 
	C308.801453,495.983948 305.484741,499.598236 303.050262,504.377808 
	C302.503479,505.451324 300.714539,506.816742 299.888306,506.594482 
	C298.801270,506.302094 297.509155,504.638062 297.376587,503.444824 
	C297.190186,501.767426 297.388489,499.275421 298.465881,498.359436 
	C303.934479,493.710602 310.424866,491.190491 317.370209,489.981384 
	C317.627350,490.381805 317.884491,490.782227 318.141602,491.182648 
	C317.024139,492.191437 315.906708,493.200195 314.467468,494.391205 
z"/>
<path fill="#1B4A81" opacity="1.000000" stroke="none" 
	d="
M259.544800,472.426697 
	C258.612366,467.517395 257.820953,462.963715 256.875427,457.523529 
	C258.743774,457.866333 260.769714,457.668976 261.213196,458.413788 
	C263.684265,462.564362 268.008820,466.075958 266.753662,471.720337 
	C266.390472,473.353607 265.480743,474.865356 264.821594,476.432831 
	C263.109650,475.215973 261.397736,473.999146 259.544800,472.426697 
z"/>
<path fill="#1F4D83" opacity="1.000000" stroke="none" 
	d="
M225.478943,392.511841 
	C223.746216,392.731171 222.235046,393.252808 220.688492,393.786682 
	C218.214691,389.026276 219.090851,387.269806 224.538498,386.508667 
	C225.025192,386.440643 225.496155,386.209198 225.980743,386.186066 
	C227.922897,386.093567 230.697327,385.252808 231.604492,386.193207 
	C232.779800,387.411438 233.004028,390.169617 232.633713,392.069061 
	C232.309204,393.733521 230.598053,395.127625 229.499405,396.641144 
	C228.233093,395.365448 226.966782,394.089783 225.478943,392.511841 
z"/>
<path fill="#BDCBDB" opacity="1.000000" stroke="none" 
	d="
M252.798599,429.977905 
	C252.935837,422.634705 250.605667,416.269592 245.494049,410.616272 
	C243.362579,408.258972 242.434387,404.813721 240.886688,401.506500 
	C241.206985,400.585144 241.599701,400.020416 242.087112,399.104279 
	C246.559662,406.159393 250.937500,413.565918 255.369965,421.337952 
	C254.798141,421.653351 254.171707,421.603241 253.892700,421.580933 
	C253.629791,424.362457 253.372055,427.089294 252.798599,429.977905 
z"/>
<path fill="#2897A8" opacity="1.000000" stroke="none" 
	d="
M291.901611,510.958069 
	C291.585968,512.789062 291.691132,514.988953 290.852325,515.442383 
	C289.398712,516.228027 287.360504,515.932068 285.567505,516.089722 
	C286.417053,512.379578 286.943542,508.547882 288.271820,505.017914 
	C288.818756,503.564301 291.090179,502.759552 292.577209,501.659698 
	C292.846252,501.979370 293.115295,502.299072 293.384338,502.618774 
	C292.888763,505.259521 292.393158,507.900238 291.901611,510.958069 
z"/>
<path fill="#2695A6" opacity="1.000000" stroke="none" 
	d="
M291.340454,536.588013 
	C289.714294,533.623718 288.117065,530.974609 287.140015,528.113708 
	C286.793671,527.099609 287.957642,525.569763 288.432129,524.275330 
	C289.739105,524.789734 291.692383,524.938660 292.229492,525.888428 
	C293.723145,528.529846 295.091370,531.418457 295.636353,534.370605 
	C296.184448,537.339478 294.271301,538.133362 291.340454,536.588013 
z"/>
<path fill="#2A5689" opacity="1.000000" stroke="none" 
	d="
M270.785278,434.722107 
	C265.655975,433.881439 267.898926,438.896240 265.966309,440.918121 
	C265.647461,438.975159 265.647461,436.884918 265.647461,434.794708 
	C265.261627,434.636353 264.875763,434.477997 264.489929,434.319641 
	C263.369537,435.945160 262.458618,437.793762 261.052063,439.114441 
	C260.176117,439.936859 258.550659,439.961060 257.261597,440.343506 
	C257.011108,439.160522 256.429199,437.927399 256.598572,436.807922 
	C256.787506,435.559418 257.486664,434.281189 258.276367,433.256927 
	C259.318542,431.905182 260.664825,430.787903 261.880371,429.569824 
	C262.968475,430.865509 264.056519,432.161194 265.202240,433.525513 
	C266.826599,433.796295 268.714203,434.110931 270.785278,434.722107 
z"/>
<path fill="#C9E5E9" opacity="1.000000" stroke="none" 
	d="
M377.060791,617.466919 
	C372.727417,622.710144 370.880188,622.934448 366.666809,619.098938 
	C369.854218,617.630859 374.014374,616.898926 375.879456,614.431885 
	C377.071136,612.855530 374.869049,608.713501 374.196167,605.333374 
	C377.914368,608.332520 378.824463,612.395874 377.060791,617.466919 
z"/>
<path fill="#BECCDB" opacity="1.000000" stroke="none" 
	d="
M277.593689,418.205322 
	C279.108093,419.492371 280.324982,420.969086 281.647461,422.955505 
	C279.008209,426.865082 284.442993,425.154755 284.024658,427.101196 
	C280.842896,425.774231 277.661133,424.447266 273.983917,422.913696 
	C273.983917,425.166046 273.983917,428.151245 273.936829,431.588165 
	C270.152771,427.576508 271.563843,421.924286 277.593689,418.205322 
z"/>
<path fill="#235086" opacity="1.000000" stroke="none" 
	d="
M265.346802,415.737366 
	C265.676300,414.939087 266.391876,413.969330 267.486664,413.369202 
	C268.290649,413.757263 268.715424,413.775696 269.140228,413.794128 
	C269.092834,413.503723 269.045471,413.213348 268.998077,412.922943 
	C268.998077,412.922943 269.005402,412.988708 269.229553,413.332214 
	C269.999207,413.490112 270.544647,413.304443 271.382141,413.120453 
	C272.118713,412.779541 272.563263,412.436981 273.007843,412.094421 
	C274.536011,414.509491 273.980103,417.401550 271.263885,418.499268 
	C270.438263,418.832916 268.819641,417.169037 267.547699,416.449188 
	C266.963318,416.118469 266.339081,415.858124 265.346802,415.737366 
z"/>
<path fill="#2A5689" opacity="1.000000" stroke="none" 
	d="
M264.134155,449.632050 
	C267.942841,451.381317 263.088654,453.342865 263.977173,455.773132 
	C264.004517,454.090698 264.069427,452.051270 264.134155,449.632050 
z"/>
<path fill="#2A5689" opacity="1.000000" stroke="none" 
	d="
M264.758118,442.229675 
	C264.386932,443.846924 263.725037,445.569275 263.029572,447.650360 
	C263.486450,446.117645 263.976929,444.226227 264.758118,442.229675 
z"/>
<path fill="#2A5689" opacity="1.000000" stroke="none" 
	d="
M273.815765,468.449158 
	C273.412689,469.707611 272.696655,471.091339 271.945862,472.833160 
	C268.683228,470.356567 270.882019,469.392761 273.815765,468.449158 
z"/>
<path fill="#2A5689" opacity="1.000000" stroke="none" 
	d="
M268.115723,461.346497 
	C269.919678,461.280396 271.890747,461.537628 274.017883,462.124878 
	C272.210236,462.193176 270.246552,461.931488 268.115723,461.346497 
z"/>
<path fill="#BDCBDB" opacity="1.000000" stroke="none" 
	d="
M238.913025,392.380402 
	C239.774628,393.813171 240.544266,395.633942 241.404083,397.740967 
	C240.603210,396.274231 239.712143,394.521332 238.913025,392.380402 
z"/>
<path fill="#2A5689" opacity="1.000000" stroke="none" 
	d="
M274.294159,463.316895 
	C274.527496,464.557495 274.719940,466.231018 274.579224,468.001648 
	C274.248413,466.649139 274.250824,465.199493 274.294159,463.316895 
z"/>
<path fill="#235086" opacity="1.000000" stroke="none" 
	d="
M264.030823,420.646088 
	C263.982574,419.339417 264.112396,417.716248 264.588348,416.028809 
	C264.692596,417.419556 264.450745,418.874573 264.030823,420.646088 
z"/>
<path fill="#2A5689" opacity="1.000000" stroke="none" 
	d="
M280.833344,460.604614 
	C280.698212,459.301605 280.802460,457.722900 281.212006,456.045685 
	C281.369110,457.407745 281.220917,458.868347 280.833344,460.604614 
z"/>
<path fill="#BECCDB" opacity="1.000000" stroke="none" 
	d="
M279.830383,411.070068 
	C279.540344,412.230896 278.906799,413.347687 278.085266,414.725220 
	C278.427124,413.665955 278.957031,412.346008 279.830383,411.070068 
z"/>
<path fill="#BDCBDB" opacity="1.000000" stroke="none" 
	d="
M247.755859,432.185181 
	C248.794357,432.460938 249.599487,432.920074 250.764999,433.360626 
	C250.450256,433.810425 249.775131,434.278778 249.100021,434.747162 
	C248.574173,433.954285 248.048325,433.161407 247.755859,432.185181 
z"/>
<path fill="#C2CFDD" opacity="1.000000" stroke="none" 
	d="
M284.198944,403.191772 
	C284.481354,404.168579 284.662140,405.615234 284.594910,407.260864 
	C284.263702,406.193787 284.180542,404.927704 284.198944,403.191772 
z"/>
<path fill="#2A5689" opacity="1.000000" stroke="none" 
	d="
M279.466431,467.280090 
	C279.347595,466.147675 279.440613,464.739075 279.821960,463.133972 
	C279.966309,464.292969 279.822327,465.648407 279.466431,467.280090 
z"/>
<path fill="#2A5689" opacity="1.000000" stroke="none" 
	d="
M281.579102,451.718140 
	C280.992523,450.893555 280.504059,449.733124 280.040955,448.215515 
	C280.603271,449.032959 281.140228,450.207642 281.579102,451.718140 
z"/>
<path fill="#C2CFDD" opacity="1.000000" stroke="none" 
	d="
M280.120880,402.867859 
	C281.130219,402.555817 282.594849,402.339905 284.166016,402.410889 
	C283.040436,402.786499 281.808319,402.875214 280.120880,402.867859 
z"/>
<path fill="#C2CFDD" opacity="1.000000" stroke="none" 
	d="
M272.994934,411.713440 
	C272.563263,412.436981 272.118713,412.779541 271.230011,412.827576 
	C270.428833,412.277344 270.071808,412.021606 269.714783,411.765900 
	C270.611023,410.897125 271.507233,410.028351 272.716064,409.104980 
	C273.013092,409.811096 272.997559,410.571808 272.994934,411.713440 
z"/>
<path fill="#2A5689" opacity="1.000000" stroke="none" 
	d="
M274.418030,476.214447 
	C275.451782,476.119141 276.521729,476.294739 277.793335,476.727020 
	C276.814697,476.817596 275.634491,476.651489 274.418030,476.214447 
z"/>
<path fill="#2A5689" opacity="1.000000" stroke="none" 
	d="
M280.227661,472.785278 
	C279.766174,472.100830 279.417297,471.167969 279.165497,469.836365 
	C279.621826,470.470703 279.981049,471.503754 280.227661,472.785278 
z"/>
<path fill="#C9E5E9" opacity="1.000000" stroke="none" 
	d="
M381.602600,625.274292 
	C381.027740,624.617493 380.607300,623.603638 380.276062,622.252869 
	C380.829193,622.916382 381.293121,623.916748 381.602600,625.274292 
z"/>
<path fill="#2A5689" opacity="1.000000" stroke="none" 
	d="
M265.268555,458.213440 
	C265.813202,458.418579 266.389801,458.916901 266.975067,459.726471 
	C266.422638,459.527374 265.861603,459.016968 265.268555,458.213440 
z"/>
<path fill="#2A5689" opacity="1.000000" stroke="none" 
	d="
M272.743896,436.738434 
	C272.168640,436.565521 271.600739,436.097565 271.008301,435.329102 
	C271.572937,435.500214 272.162079,435.971802 272.743896,436.738434 
z"/>
<path fill="#BDCBDB" opacity="1.000000" stroke="none" 
	d="
M256.170410,423.081512 
	C256.839081,423.212830 257.481506,423.705170 258.209778,424.497192 
	C257.578522,424.345428 256.861359,423.893982 256.170410,423.081512 
z"/>
<path fill="#C9E5E9" opacity="1.000000" stroke="none" 
	d="
M380.220825,619.837341 
	C379.633209,619.553955 379.281586,619.104614 378.906616,618.359741 
	C379.407806,618.599915 379.932312,619.135620 380.220825,619.837341 
z"/>
<path fill="#FEAA28" opacity="1.000000" stroke="none" 
	d="
M54.012741,23.002289 
	C54.031029,22.990261 53.660656,22.762497 53.660656,22.762497 
	C53.660656,22.762497 53.924850,22.822273 53.946083,22.935841 
	C53.967316,23.049406 53.994457,23.014317 54.012741,23.002289 
z"/>
<path fill="#BECCDB" opacity="1.000000" stroke="none" 
	d="
M297.962372,426.101196 
	C300.326172,429.140289 302.690002,432.179382 305.053802,435.218445 
	C304.525482,435.686523 303.997192,436.154572 303.468872,436.622620 
	C300.000427,433.703369 296.532013,430.784088 293.214600,427.466583 
	C294.897888,426.745972 296.430115,426.423584 297.962372,426.101196 
z"/>
<path fill="#FEFEFE" opacity="1.000000" stroke="none" 
	d="
M297.628479,425.990540 
	C296.430115,426.423584 294.897888,426.745972 293.001282,427.201599 
	C290.051422,427.323059 287.465881,427.311249 284.452515,427.200317 
	C284.442993,425.154755 279.008209,426.865082 281.884399,423.203857 
	C282.467316,422.934814 282.918945,422.927094 283.884766,423.276764 
	C285.583069,423.513062 286.767212,423.391968 287.951324,423.270874 
	C288.687683,423.272675 289.424042,423.274445 290.579529,423.636108 
	C291.669891,423.974304 292.341095,423.952667 293.012329,423.931030 
	C294.439728,424.580658 295.867157,425.230286 297.628479,425.990540 
z"/>
<path fill="#BECCDB" opacity="1.000000" stroke="none" 
	d="
M287.718262,423.081299 
	C286.767212,423.391968 285.583069,423.513062 284.211273,423.373291 
	C285.177460,423.038849 286.331329,422.965302 287.718262,423.081299 
z"/>
<path fill="#BECCDB" opacity="1.000000" stroke="none" 
	d="
M292.825439,423.687805 
	C292.341095,423.952667 291.669891,423.974304 290.935455,423.737244 
	C291.461029,423.467194 292.049805,423.455872 292.825439,423.687805 
z"/>
<path fill="#FEFFFF" opacity="1.000000" stroke="none" 
	d="
M269.456238,411.876160 
	C270.071808,412.021606 270.428833,412.277344 270.937988,412.825928 
	C270.544647,413.304443 269.999207,413.490112 269.202148,413.313721 
	C269.032928,412.629883 269.115326,412.308136 269.456238,411.876160 
z"/>
<path fill="#FEFFFF" opacity="1.000000" stroke="none" 
	d="
M268.679626,412.859009 
	C269.045471,413.213348 269.092834,413.503723 269.140228,413.794128 
	C268.715424,413.775696 268.290649,413.757263 267.795349,413.332367 
	C267.936951,412.882324 268.149048,412.838715 268.679626,412.859009 
z"/>
<path fill="#FEFFFF" opacity="1.000000" stroke="none" 
	d="
M389.610809,673.581360 
	C389.806732,672.981567 390.246979,672.648376 390.687225,672.315186 
	C390.733673,672.862488 390.780151,673.409851 390.601318,674.153503 
	C390.202454,674.182617 390.028809,674.015320 389.610809,673.581360 
z"/>
</svg>